<?xml version="1.0" standalone="no"?>
<!DOCTYPE svg PUBLIC "-//W3C//DTD SVG 20010904//EN"
 "http://www.w3.org/TR/2001/REC-SVG-20010904/DTD/svg10.dtd">
<svg version="1.0" xmlns="http://www.w3.org/2000/svg"
 width="700.000000pt" height="700.000000pt" viewBox="0 0 700.000000 700.000000"
 preserveAspectRatio="xMidYMid meet">
<metadata>
Created by potrace 1.11, written by Peter Selinger 2001-2013
</metadata>
<g transform="translate(0.000000,700.000000) scale(0.100000,-0.100000)"
fill="#000000" stroke="none">
<path d="M0 3500 l0 -3500 1407 2 1407 3 64 170 c62 164 78 208 158 415 20 52
40 106 44 120 5 14 17 48 28 75 10 28 78 208 151 400 72 193 135 359 141 370
5 11 20 52 33 90 14 39 30 84 37 100 7 17 16 39 21 50 4 11 30 81 58 155 27
74 125 333 216 575 91 242 202 537 246 655 44 118 84 224 89 235 5 11 61 158
125 326 l115 306 -61 149 c-68 167 -150 335 -202 417 -88 137 -201 197 -376
198 -111 1 -166 -6 -270 -32 -41 -11 -76 -17 -79 -15 -3 4 -143 483 -187 641
-8 28 -30 106 -49 174 -20 69 -34 126 -33 127 4 4 211 64 237 69 14 3 36 7 50
10 14 3 43 8 65 11 22 3 51 8 65 11 49 9 396 12 460 2 121 -17 132 -19 233
-45 339 -86 617 -271 815 -544 34 -47 67 -91 73 -98 24 -29 140 -263 174 -352
20 -52 41 -104 45 -115 5 -11 59 -153 120 -315 61 -162 115 -304 120 -315 8
-19 66 -172 255 -675 42 -113 81 -214 85 -225 5 -11 28 -69 50 -130 22 -60 44
-119 50 -130 5 -11 47 -121 93 -245 89 -236 344 -910 403 -1065 19 -49 51
-133 71 -185 138 -361 205 -504 266 -567 35 -37 96 -68 150 -77 l37 -6 0 3140
0 3140 -3500 0 -3500 0 0 -3500z"/>
<path d="M4905 2443 c-8 -20 -129 -368 -179 -518 -19 -55 -75 -219 -126 -365
-122 -353 -198 -576 -275 -800 -34 -102 -106 -311 -159 -464 -53 -154 -96
-283 -96 -288 0 -4 439 -8 975 -8 l975 0 -78 78 c-42 42 -84 86 -92 97 -8 11
-27 36 -41 55 -83 111 -157 266 -233 485 -80 232 -239 687 -271 775 -18 52
-52 149 -75 215 -23 66 -54 156 -70 200 -28 78 -63 179 -140 400 -21 61 -41
120 -45 133 -8 28 -59 31 -70 5z"/>
</g>
</svg>
