<?xml version="1.0" encoding="UTF-8" standalone="no"?>
<svg
   xmlns:dc="http://purl.org/dc/elements/1.1/"
   xmlns:cc="http://creativecommons.org/ns#"
   xmlns:rdf="http://www.w3.org/1999/02/22-rdf-syntax-ns#"
   xmlns:svg="http://www.w3.org/2000/svg"
   xmlns="http://www.w3.org/2000/svg"
   width="491.99438"
   height="439.44199"
   viewBox="0 0 491.99438 439.44199"
   version="1.1">
  <g
     id="Logo-Light"
     transform="translate(-110.00025,-0.39323073)">
    <g
       id="hexagon1-+-{-+-}"
       transform="translate(110)">
      <g
         id="hexagon1"
         style="fill:#3498db">
        <path
           d="M 485.91363,197.33544 385.61462,23.161801 C 377.49234,9.0647344 362.50983,0.39323073 346.28972,0.39323073 H 145.70085 c -16.21909,0 -31.19753,8.67150367 -39.32591,22.76857027 L 6.082031,197.33544 c -8.1090351,14.09604 -8.1090351,31.44313 0,45.54122 L 106.37494,417.06562 c 8.12838,14.09706 23.10682,22.76959 39.32591,22.76959 H 346.2887 c 16.22113,0 31.20364,-8.67253 39.3249,-22.76959 L 485.91363,242.87666 c 8.10802,-14.09809 8.10802,-31.44518 0,-45.54122 z" id="Shape"/>
      </g>
      <g
         id="{"
         transform="translate(107,82)"
         style="fill:#ffffff">
        <path
           d="M 105.78424,265.81492 H 95.204731 c -18.395102,0 -32.072083,-4.31278 -41.031355,-12.93846 -8.959273,-8.62569 -13.438841,-21.70698 -13.438841,-39.24428 v -49.18044 c 0,-4.67026 -0.524205,-8.84007 -1.572631,-12.50956 -1.048425,-3.66949 -2.883142,-6.76706 -5.504206,-9.29281 -2.621064,-2.52576 -6.099878,-4.45578 -10.436547,-5.79014 -4.336669,-1.33436 -9.793165,-2.00153 -16.3696518,-2.00153 H 0.70394424 V 114.98537 H 6.8514992 c 6.9577328,0 12.6286758,-0.57186 17.0130008,-1.7156 4.384325,-1.14373 7.815484,-2.88314 10.29358,-5.21827 2.478097,-2.33513 4.193677,-5.31357 5.146791,-8.9354 0.953114,-3.621833 1.429664,-7.910782 1.429664,-12.866975 V 52.366089 c 0,-8.006158 0.953099,-15.225889 2.859327,-21.659408 1.906229,-6.43352 5.02763,-11.913844 9.364299,-16.441136 C 57.29483,9.7382535 62.918119,6.2594393 69.828196,3.8289985 76.738273,1.3985576 85.197033,0.18335543 95.204731,0.18335543 H 105.78424 V 20.198651 h -8.435013 c -22.112247,0 -33.168204,10.722372 -33.168204,32.167438 v 33.31117 c 0,23.255981 -10.055202,36.361101 -30.165909,39.315761 20.301329,2.00154 30.451842,15.059 30.451842,39.17279 v 48.89451 c 0,21.82631 10.960647,32.7393 32.882271,32.7393 h 8.435013 z"/>
      </g>
      <g
         id="}"
         transform="translate(279,82)"
         style="fill:#ffffff">
        <path
           d="M 0.23930424,0.18335543 H 10.818817 c 18.395102,0 32.072083,4.31277637 41.031355,12.93845857 8.959273,8.625682 13.438841,21.706977 13.438841,39.244275 v 33.025237 c 0,4.670259 0.524205,8.840071 1.572631,12.50956 1.048425,3.669494 2.883142,6.767064 5.504206,9.292814 2.621064,2.52575 6.123705,4.45578 10.50803,5.79014 4.384325,1.33436 9.864648,2.00153 16.441135,2.00153 h 6.147555 v 19.87233 h -6.147555 c -6.957732,0 -12.652503,0.57186 -17.084484,1.71559 -4.43198,1.14374 -7.886967,2.88315 -10.365063,5.21828 -2.478097,2.33513 -4.193677,5.31356 -5.146791,8.9354 -0.953114,3.62183 -1.429664,7.91078 -1.429664,12.86697 v 50.03824 c 0,8.00616 -0.953099,15.22589 -2.859327,21.65941 -1.906229,6.43352 -5.003803,11.91384 -9.292816,16.44114 -4.289013,4.52729 -9.912302,8.0061 -16.870035,10.43654 -6.957732,2.43044 -15.44032,3.64565 -25.448018,3.64565 H 0.23930424 v -20.0153 H 8.8172879 c 22.0169351,0 33.0252371,-10.72237 33.0252371,-32.16744 v -49.46637 c 0,-23.25598 10.055202,-36.31345 30.165909,-39.17279 C 51.707105,122.80086 41.556592,109.69573 41.556592,85.677259 V 52.937955 C 41.556592,31.111643 30.6436,20.198651 8.8172879,20.198651 H 0.23930424 Z"/>
      </g>
    </g>
  </g>
</svg>
