<?xml version="1.0" encoding="utf-8"?>
<!-- Generator: Adobe Illustrator 23.1.1, SVG Export Plug-In . SVG Version: 6.00 Build 0)  -->
<svg version="1.1" xmlns="http://www.w3.org/2000/svg" xmlns:xlink="http://www.w3.org/1999/xlink" x="0px" y="0px"
	 viewBox="0 0 765 257.6" enable-background="new 0 0 765 257.6" xml:space="preserve">
<g id="Layer_1">
	<g>
		<path fill="none" stroke="#5397D1" stroke-width="15" stroke-miterlimit="10" d="M273.3,144.9"/>
		<path fill="none" stroke="#5397D1" stroke-width="15" stroke-miterlimit="10" d="M194,7.5H91.1c-11.5,0-22.1,6.1-27.8,16.1
			l-51.5,89.1c-5.7,9.9-5.7,22.2,0,32.1L63.3,234c5.7,9.9,16.4,16.1,27.8,16.1H194"/>
	</g>
	<g>
		<g>
			<path fill="#FFFFFF" stroke="#FFFFFF" stroke-miterlimit="10" d="M643.2,208.4v-11.1c11-0.1,17.4-7.8,17.4-21v-19.9
				c0-13.9,4.1-21.4,13.3-24.6c1.5-0.5,2.5-1.9,2.5-3.5c0-1.6-1-3-2.5-3.5c-8.9-3.1-13.3-11-13.3-24.2v-20c0-20.4-13-20.4-17.2-20.4
				h-0.1V49.1h2.7c19.2,0,30.2,11,30.2,30.1v21.6c0,12.6,3.4,20.6,19.6,21.3V135c-16.3,0.8-19.6,8.8-19.6,21.2v22.3
				c0,27-21.1,29.9-30.2,29.9L643.2,208.4L643.2,208.4z"/>
		</g>
		<g>
			<path fill="#FFFFFF" stroke="#FFFFFF" stroke-miterlimit="10" d="M643.2,208.4v-11.1c11-0.1,17.4-7.8,17.4-21v-19.9
				c0-13.9,4.1-21.4,13.3-24.6c1.5-0.5,2.5-1.9,2.5-3.5c0-1.6-1-3-2.5-3.5c-8.9-3.1-13.3-11-13.3-24.2v-20c0-20.4-13-20.4-17.2-20.4
				h-0.1V49.1h2.7c19.2,0,30.2,11,30.2,30.1v21.6c0,12.6,3.4,20.6,19.6,21.3V135c-16.3,0.8-19.6,8.8-19.6,21.2v22.3
				c0,27-21.1,29.9-30.2,29.9L643.2,208.4L643.2,208.4z"/>
		</g>
	</g>
	<g>
		<g>
			<path fill="#FFFFFF" stroke="#FFFFFF" stroke-miterlimit="10" d="M121,208.4v-11.1c-11-0.1-17.4-7.8-17.4-21v-19.9
				c0-13.9-4.1-21.4-13.3-24.6c-1.5-0.5-2.5-1.9-2.5-3.5c0-1.6,1-3,2.5-3.5c8.9-3.1,13.3-11,13.3-24.2v-20c0-20.4,13-20.4,17.2-20.4
				h0.1V49.1h-2.7C99,49.1,88,60.1,88,79.2v21.6c0,12.6-3.4,20.6-19.6,21.3V135c16.3,0.8,19.6,8.8,19.6,21.2v22.3
				c0,27,21.1,29.9,30.2,29.9L121,208.4L121,208.4z"/>
		</g>
		<g>
			<path fill="#FFFFFF" stroke="#FFFFFF" stroke-miterlimit="10" d="M121,208.4v-11.1c-11-0.1-17.4-7.8-17.4-21v-19.9
				c0-13.9-4.1-21.4-13.3-24.6c-1.5-0.5-2.5-1.9-2.5-3.5c0-1.6,1-3,2.5-3.5c8.9-3.1,13.3-11,13.3-24.2v-20c0-20.4,13-20.4,17.2-20.4
				h0.1V49.1h-2.7C99,49.1,88,60.1,88,79.2v21.6c0,12.6-3.4,20.6-19.6,21.3V135c16.3,0.8,19.6,8.8,19.6,21.2v22.3
				c0,27,21.1,29.9,30.2,29.9L121,208.4L121,208.4z"/>
		</g>
	</g>
	<g>
		<path fill="none" stroke="#5397D1" stroke-width="15" stroke-miterlimit="10" d="M569.1,250.1H672c11.5,0,22.1-6.1,27.8-16.1
			l51.5-89.1c5.7-9.9,5.7-22.2,0-32.1l-51.5-89.1C694.1,13.6,683.5,7.5,672,7.5H569.1"/>
	</g>
	<line fill="none" stroke="#5397D1" stroke-width="15" stroke-miterlimit="10" x1="193.6" y1="7.5" x2="570.6" y2="7.5"/>
	<line fill="none" stroke="#5397D1" stroke-width="15" stroke-miterlimit="10" x1="193.6" y1="250" x2="570.6" y2="250"/>
	<path fill="none" stroke="#5397D1" stroke-width="15" stroke-miterlimit="10" d="M507.4,171.9"/>
</g>
<g id="Layer_2">
	<g>
		<path fill="#FFFFFF" d="M155.5,87.5v19.2c0,7.2,3.2,10.3,7.5,10.3c4.8,0,7.9-3.2,7.9-10.3V87.5h4.2v18.9c0,9.9-5.2,14-12.2,14
			c-6.6,0-11.6-3.8-11.6-13.8V87.5H155.5z"/>
		<path fill="#FFFFFF" d="M180.8,102.9c0-2.4,0-4.4-0.2-6.3h3.7l0.2,3.8h0.1c1.2-2.2,3.8-4.4,7.7-4.4c3.2,0,8.2,1.9,8.2,9.9v13.9
			h-4.2v-13.4c0-3.7-1.4-6.9-5.4-6.9c-2.8,0-4.9,2-5.7,4.3c-0.2,0.5-0.3,1.2-0.3,2v14h-4.2V102.9z"/>
		<path fill="#FFFFFF" d="M210.7,90.1c0,1.4-1,2.6-2.7,2.6c-1.5,0-2.5-1.2-2.5-2.6c0-1.5,1.1-2.6,2.6-2.6
			C209.7,87.4,210.7,88.6,210.7,90.1z M206,119.8V96.6h4.2v23.2H206z"/>
		<path fill="#FFFFFF" d="M217.4,96.6l4.6,13.1c0.8,2.1,1.4,4,1.9,6h0.1c0.5-1.9,1.2-3.8,2-6l4.5-13.1h4.4l-9.1,23.2h-4l-8.8-23.2
			H217.4z"/>
		<path fill="#FFFFFF" d="M239.3,109c0.1,5.7,3.7,8.1,8,8.1c3,0,4.8-0.5,6.4-1.2l0.7,3c-1.5,0.7-4,1.4-7.7,1.4
			c-7.2,0-11.4-4.7-11.4-11.7c0-7,4.1-12.5,10.9-12.5c7.6,0,9.6,6.7,9.6,10.9c0,0.9-0.1,1.5-0.1,2H239.3z M251.7,105.9
			c0-2.7-1.1-6.9-5.9-6.9c-4.3,0-6.1,3.9-6.5,6.9H251.7z"/>
		<path fill="#FFFFFF" d="M259.6,103.8c0-2.7,0-5.1-0.2-7.2h3.7l0.1,4.6h0.2c1.1-3.1,3.6-5.1,6.4-5.1c0.5,0,0.8,0,1.2,0.1v4
			c-0.4-0.1-0.9-0.1-1.4-0.1c-3,0-5.1,2.3-5.7,5.4c-0.1,0.6-0.2,1.2-0.2,2v12.4h-4.2V103.8z"/>
		<path fill="#FFFFFF" d="M273.3,115.5c1.2,0.8,3.5,1.7,5.6,1.7c3.1,0,4.5-1.5,4.5-3.5c0-2-1.2-3.1-4.3-4.3
			c-4.2-1.5-6.1-3.8-6.1-6.6c0-3.7,3-6.8,8-6.8c2.4,0,4.4,0.7,5.7,1.4l-1.1,3.1c-0.9-0.6-2.6-1.3-4.8-1.3c-2.5,0-3.9,1.4-3.9,3.2
			c0,1.9,1.4,2.8,4.4,3.9c4,1.5,6.1,3.6,6.1,7c0,4.1-3.2,7-8.7,7c-2.5,0-4.9-0.6-6.5-1.6L273.3,115.5z"/>
		<path fill="#FFFFFF" d="M296.1,90.1c0,1.4-1,2.6-2.7,2.6c-1.5,0-2.5-1.2-2.5-2.6c0-1.5,1.1-2.6,2.6-2.6
			C295.1,87.4,296.1,88.6,296.1,90.1z M291.4,119.8V96.6h4.2v23.2H291.4z"/>
		<path fill="#FFFFFF" d="M306.3,89.9v6.7h6v3.2h-6v12.5c0,2.9,0.8,4.5,3.2,4.5c1.1,0,1.9-0.1,2.4-0.3l0.2,3.2
			c-0.8,0.3-2.1,0.6-3.7,0.6c-2,0-3.6-0.6-4.6-1.8c-1.2-1.2-1.6-3.3-1.6-6V99.8h-3.6v-3.2h3.6V91L306.3,89.9z"/>
		<path fill="#FFFFFF" d="M317.6,96.6l5.1,13.7c0.5,1.5,1.1,3.4,1.5,4.8h0.1c0.4-1.4,0.9-3.2,1.5-4.8l4.6-13.6h4.5l-6.3,16.6
			c-3,8-5.1,12-8,14.5c-2.1,1.8-4.1,2.5-5.2,2.7l-1.1-3.6c1.1-0.3,2.4-1,3.7-2.1c1.2-0.9,2.6-2.5,3.6-4.7c0.2-0.4,0.3-0.8,0.3-1
			c0-0.2-0.1-0.6-0.3-1.1L313,96.6H317.6z"/>
		<path fill="#FFFFFF" d="M367,108c0,8.6-6,12.3-11.6,12.3c-6.3,0-11.1-4.6-11.1-12c0-7.8,5.1-12.3,11.5-12.3
			C362.5,96.1,367,100.9,367,108z M348.6,108.3c0,5.1,2.9,8.9,7.1,8.9c4,0,7.1-3.8,7.1-9c0-3.9-2-8.9-7-8.9
			C350.7,99.2,348.6,103.8,348.6,108.3z"/>
		<path fill="#FFFFFF" d="M371.3,119.8v-20H368v-3.2h3.3v-1.1c0-3.3,0.7-6.2,2.7-8.1c1.6-1.5,3.7-2.2,5.7-2.2c1.5,0,2.8,0.3,3.6,0.7
			l-0.6,3.3c-0.6-0.3-1.5-0.5-2.7-0.5c-3.6,0-4.5,3.2-4.5,6.7v1.2h5.6v3.2h-5.6v20H371.3z"/>
		<path fill="#FFFFFF" d="M419,124.6c-4.4-1.2-8.6-2.4-12.4-3.7c-0.7-0.2-1.3-0.5-2-0.5c-7.7-0.3-14.3-6-14.3-16.4
			c0-10.4,6.3-17,15.1-17c8.8,0,14.5,6.8,14.5,16.4c0,8.3-3.8,13.6-9.2,15.5v0.2c3.2,0.8,6.7,1.6,9.5,2.1L419,124.6z M415.6,103.5
			c0-6.5-3.4-13.2-10.2-13.2c-7.1,0-10.5,6.5-10.5,13.5c0,6.9,3.7,13.1,10.3,13.1C411.8,116.9,415.6,110.9,415.6,103.5z"/>
		<path fill="#FFFFFF" d="M443.4,113.5c0,2.4,0,4.5,0.2,6.3h-3.7l-0.2-3.8h-0.1c-1.1,1.9-3.6,4.3-7.7,4.3c-3.6,0-8-2-8-10.2V96.6
			h4.2v12.9c0,4.4,1.3,7.4,5.2,7.4c2.8,0,4.8-2,5.6-3.8c0.2-0.6,0.4-1.4,0.4-2.2V96.6h4.2V113.5z"/>
		<path fill="#FFFFFF" d="M451.3,109c0.1,5.7,3.7,8.1,8,8.1c3,0,4.8-0.5,6.4-1.2l0.7,3c-1.5,0.7-4,1.4-7.7,1.4
			c-7.2,0-11.4-4.7-11.4-11.7c0-7,4.1-12.5,10.9-12.5c7.6,0,9.6,6.7,9.6,10.9c0,0.9-0.1,1.5-0.1,2H451.3z M463.7,105.9
			c0-2.7-1.1-6.9-5.9-6.9c-4.3,0-6.1,3.9-6.5,6.9H463.7z"/>
		<path fill="#FFFFFF" d="M473.9,109c0.1,5.7,3.7,8.1,8,8.1c3,0,4.8-0.5,6.4-1.2l0.7,3c-1.5,0.7-4,1.4-7.7,1.4
			c-7.2,0-11.4-4.7-11.4-11.7c0-7,4.1-12.5,10.9-12.5c7.6,0,9.6,6.7,9.6,10.9c0,0.9-0.1,1.5-0.1,2H473.9z M486.3,105.9
			c0-2.7-1.1-6.9-5.9-6.9c-4.3,0-6.1,3.9-6.5,6.9H486.3z"/>
		<path fill="#FFFFFF" d="M494.2,102.9c0-2.4,0-4.4-0.2-6.3h3.7l0.2,3.8h0.1c1.2-2.2,3.8-4.4,7.7-4.4c3.2,0,8.2,1.9,8.2,9.9v13.9
			h-4.2v-13.4c0-3.7-1.4-6.9-5.4-6.9c-2.8,0-4.9,2-5.7,4.3c-0.2,0.5-0.3,1.2-0.3,2v14h-4.2V102.9z"/>
		<path fill="#FFFFFF" d="M518.8,115.5c1.2,0.8,3.5,1.7,5.6,1.7c3.1,0,4.5-1.5,4.5-3.5c0-2-1.2-3.1-4.3-4.3
			c-4.2-1.5-6.1-3.8-6.1-6.6c0-3.7,3-6.8,8-6.8c2.4,0,4.4,0.7,5.7,1.4l-1.1,3.1c-0.9-0.6-2.6-1.3-4.8-1.3c-2.5,0-3.9,1.4-3.9,3.2
			c0,1.9,1.4,2.8,4.4,3.9c4,1.5,6.1,3.6,6.1,7c0,4.1-3.2,7-8.7,7c-2.5,0-4.9-0.6-6.5-1.6L518.8,115.5z"/>
		<path fill="#FFFFFF" d="M537,85.7h4.2v34.1H537V85.7z"/>
		<path fill="#FFFFFF" d="M559.7,119.8l-0.3-2.9h-0.1c-1.3,1.8-3.8,3.5-7.1,3.5c-4.7,0-7.1-3.3-7.1-6.7c0-5.6,5-8.7,14-8.6v-0.5
			c0-1.9-0.5-5.4-5.3-5.4c-2.2,0-4.4,0.7-6,1.7l-1-2.8c1.9-1.2,4.7-2.1,7.6-2.1c7.1,0,8.8,4.8,8.8,9.5v8.7c0,2,0.1,4,0.4,5.6H559.7z
			 M559.1,108c-4.6-0.1-9.8,0.7-9.8,5.2c0,2.7,1.8,4,4,4c3,0,4.9-1.9,5.6-3.9c0.1-0.4,0.2-0.9,0.2-1.3V108z"/>
		<path fill="#FFFFFF" d="M568.5,102.9c0-2.4,0-4.4-0.2-6.3h3.7l0.2,3.8h0.1c1.2-2.2,3.8-4.4,7.7-4.4c3.2,0,8.2,1.9,8.2,9.9v13.9
			h-4.2v-13.4c0-3.7-1.4-6.9-5.4-6.9c-2.8,0-4.9,2-5.7,4.3c-0.2,0.5-0.3,1.2-0.3,2v14h-4.2V102.9z"/>
		<path fill="#FFFFFF" d="M613.8,85.7v28.1c0,2.1,0,4.4,0.2,6h-3.8l-0.2-4h-0.1c-1.3,2.6-4.1,4.6-7.9,4.6c-5.6,0-9.9-4.8-9.9-11.8
			c0-7.7,4.8-12.5,10.4-12.5c3.6,0,6,1.7,7,3.6h0.1V85.7H613.8z M609.6,106c0-0.5,0-1.2-0.2-1.8c-0.6-2.7-2.9-4.9-6.1-4.9
			c-4.4,0-7,3.8-7,9c0,4.7,2.3,8.6,6.9,8.6c2.8,0,5.4-1.9,6.2-5c0.1-0.6,0.2-1.2,0.2-1.8V106z"/>
		<path fill="#FFFFFF" d="M217.4,164.9c-1.3,0.7-4.4,1.4-8.3,1.4c-11.2,0-16.9-7-16.9-16.2c0-11,7.9-17.2,17.7-17.2
			c3.8,0,6.7,0.8,8,1.4l-1.5,5.8c-1.5-0.6-3.6-1.2-6.1-1.2c-5.8,0-10.3,3.5-10.3,10.7c0,6.5,3.8,10.6,10.4,10.6
			c2.2,0,4.7-0.5,6.1-1.1L217.4,164.9z"/>
		<path fill="#FFFFFF" d="M242.8,153.8c0,8.6-6.1,12.5-12.4,12.5c-6.9,0-12.1-4.5-12.1-12.1c0-7.6,5-12.4,12.5-12.4
			C238,141.8,242.8,146.8,242.8,153.8z M225.8,154.1c0,4,1.7,7.1,4.8,7.1c2.8,0,4.7-2.8,4.7-7.1c0-3.5-1.3-7.1-4.7-7.1
			C227.1,147,225.8,150.6,225.8,154.1z"/>
		<path fill="#FFFFFF" d="M245.8,149.8c0-2.9-0.1-5.4-0.2-7.5h6.1l0.3,3.2h0.1c1-1.5,3.1-3.7,7.1-3.7c3,0,5.4,1.5,6.4,4h0.1
			c0.9-1.2,1.9-2.2,3-2.8c1.3-0.8,2.7-1.2,4.5-1.2c4.5,0,7.9,3.2,7.9,10.2v13.8h-7.1v-12.8c0-3.4-1.1-5.4-3.5-5.4
			c-1.7,0-2.9,1.2-3.4,2.5c-0.2,0.5-0.3,1.3-0.3,1.9v13.7H260v-13.2c0-3-1.1-5-3.4-5c-1.9,0-3,1.4-3.4,2.6c-0.2,0.6-0.3,1.2-0.3,1.8
			v13.7h-7.1V149.8z"/>
		<path fill="#FFFFFF" d="M285.7,150.2c0-3.1-0.1-5.7-0.2-7.9h6.3l0.3,3.3h0.1c1.7-2.5,4.4-3.8,7.8-3.8c5.1,0,9.7,4.5,9.7,12
			c0,8.5-5.4,12.6-10.7,12.6c-2.8,0-5-1.2-6.1-2.7H293v11.7h-7.3V150.2z M293,155.7c0,0.6,0,1.1,0.1,1.5c0.5,2,2.2,3.5,4.3,3.5
			c3.2,0,5-2.6,5-6.6c0-3.7-1.7-6.6-4.9-6.6c-2.1,0-3.9,1.5-4.4,3.7c-0.1,0.4-0.1,0.9-0.1,1.3V155.7z"/>
		<path fill="#FFFFFF" d="M335.1,158.3c0,3.1,0.1,5.6,0.2,7.5h-6.3l-0.3-3.3h-0.1c-0.9,1.4-3.1,3.8-7.3,3.8c-4.8,0-8.3-3-8.3-10.2
			v-13.8h7.3V155c0,3.4,1.1,5.5,3.6,5.5c2,0,3.2-1.4,3.6-2.5c0.2-0.4,0.2-1,0.2-1.6v-14h7.3V158.3z"/>
		<path fill="#FFFFFF" d="M347.6,135.6v6.7h5.2v5.4h-5.2v8.5c0,2.8,0.7,4.1,2.9,4.1c0.9,0,1.6-0.1,2.2-0.2l0,5.5
			c-1,0.4-2.7,0.6-4.8,0.6c-2.4,0-4.3-0.8-5.5-2c-1.3-1.4-2-3.6-2-7v-9.6h-3.1v-5.4h3.1v-5.1L347.6,135.6z"/>
		<path fill="#FFFFFF" d="M363.2,135.8c0,2-1.5,3.6-3.9,3.6c-2.3,0-3.8-1.6-3.8-3.6c0-2.1,1.5-3.7,3.8-3.7
			C361.6,132.1,363.1,133.7,363.2,135.8z M355.6,165.8v-23.5h7.3v23.5H355.6z"/>
		<path fill="#FFFFFF" d="M367.4,149.8c0-2.9-0.1-5.4-0.2-7.5h6.3l0.3,3.2h0.1c1-1.5,3.4-3.7,7.2-3.7c4.8,0,8.4,3.2,8.4,10.1v13.9
			h-7.3v-13c0-3-1.1-5.1-3.7-5.1c-2,0-3.2,1.4-3.7,2.7c-0.2,0.4-0.3,1.2-0.3,1.8v13.5h-7.3V149.8z"/>
		<path fill="#FFFFFF" d="M416.5,142.3c-0.1,1.5-0.2,3.5-0.2,7v13.1c0,4.5-0.9,8.2-3.6,10.6c-2.6,2.2-6.1,2.9-9.6,2.9
			c-3.1,0-6.3-0.6-8.4-1.8l1.4-5.5c1.5,0.9,4.1,1.8,6.8,1.8c3.5,0,6.1-1.9,6.1-6.2v-1.5H409c-1.4,2-3.6,3.1-6.3,3.1
			c-5.8,0-9.9-4.7-9.9-11.5c0-7.5,4.9-12.3,10.7-12.3c3.2,0,5.2,1.4,6.4,3.3h0.1l0.2-2.8H416.5z M409,151.9c0-0.5,0-1-0.1-1.3
			c-0.5-1.9-1.9-3.2-3.9-3.2c-2.6,0-4.8,2.4-4.8,6.7c0,3.5,1.7,6.2,4.8,6.2c1.9,0,3.4-1.2,3.8-3c0.2-0.5,0.2-1.3,0.2-1.9V151.9z"/>
		<path fill="#FFFFFF" d="M429.4,158.3c2,1,5,2,8.1,2c3.4,0,5.1-1.4,5.1-3.5c0-2-1.5-3.2-5.4-4.6c-5.4-1.9-8.9-4.8-8.9-9.6
			c0-5.5,4.6-9.7,12.2-9.7c3.6,0,6.3,0.8,8.3,1.6l-1.6,5.9c-1.3-0.6-3.6-1.5-6.8-1.5s-4.7,1.4-4.7,3.1c0,2.1,1.8,3,6,4.6
			c5.7,2.1,8.4,5.1,8.4,9.6c0,5.4-4.2,10-13.1,10c-3.7,0-7.3-1-9.2-2L429.4,158.3z"/>
		<path fill="#FFFFFF" d="M476.9,153.8c0,8.6-6.1,12.5-12.4,12.5c-6.9,0-12.1-4.5-12.1-12.1c0-7.6,5-12.4,12.5-12.4
			C472.1,141.8,476.9,146.8,476.9,153.8z M459.9,154.1c0,4,1.7,7.1,4.8,7.1c2.8,0,4.7-2.8,4.7-7.1c0-3.5-1.3-7.1-4.7-7.1
			C461.2,147,459.9,150.6,459.9,154.1z"/>
		<path fill="#FFFFFF" d="M497.8,165.2c-1.3,0.6-3.7,1.1-6.5,1.1c-7.6,0-12.4-4.6-12.4-12c0-6.9,4.7-12.5,13.4-12.5
			c1.9,0,4,0.3,5.6,0.9l-1.2,5.4c-0.9-0.4-2.2-0.7-4.1-0.7c-3.8,0-6.3,2.7-6.3,6.6c0,4.3,2.9,6.6,6.4,6.6c1.7,0,3.1-0.3,4.2-0.7
			L497.8,165.2z"/>
		<path fill="#FFFFFF" d="M507.9,135.8c0,2-1.5,3.6-3.9,3.6c-2.3,0-3.8-1.6-3.8-3.6c0-2.1,1.5-3.7,3.8-3.7
			C506.4,132.1,507.8,133.7,507.9,135.8z M500.4,165.8v-23.5h7.3v23.5H500.4z"/>
		<path fill="#FFFFFF" d="M517.7,156.4c0.2,3,3.2,4.5,6.6,4.5c2.5,0,4.5-0.3,6.5-1l1,4.9c-2.4,1-5.3,1.4-8.5,1.4
			c-8,0-12.5-4.6-12.5-12c0-6,3.7-12.5,11.9-12.5c7.6,0,10.5,5.9,10.5,11.7c0,1.2-0.1,2.4-0.2,2.9H517.7z M526.3,151.4
			c0-1.8-0.8-4.8-4.1-4.8c-3.1,0-4.3,2.8-4.5,4.8H526.3z"/>
		<path fill="#FFFFFF" d="M544.1,135.6v6.7h5.2v5.4h-5.2v8.5c0,2.8,0.7,4.1,2.9,4.1c0.9,0,1.6-0.1,2.2-0.2l0,5.5
			c-1,0.4-2.7,0.6-4.8,0.6c-2.4,0-4.3-0.8-5.5-2c-1.3-1.4-2-3.6-2-7v-9.6h-3.1v-5.4h3.1v-5.1L544.1,135.6z"/>
		<path fill="#FFFFFF" d="M557.9,142.3l3.5,11.5c0.4,1.4,0.9,3.1,1.2,4.4h0.1c0.3-1.2,0.7-3,1.1-4.4l2.9-11.5h7.8l-5.5,15.5
			c-3.4,9.3-5.6,13.1-8.3,15.4c-2.5,2.2-5.2,3-7.1,3.2l-1.5-6.2c0.9-0.1,2.1-0.6,3.2-1.2c1.1-0.6,2.3-1.7,3-2.9
			c0.2-0.3,0.4-0.7,0.4-1.1c0-0.2,0-0.6-0.3-1.2l-8.6-21.5H557.9z"/>
	</g>
</g>
</svg>
