<svg width="100%" height="100%" viewBox="0 0 471 103" fill="none" xmlns="http://www.w3.org/2000/svg" class="max-h-6 max-w-fit select-none"><title>Logo</title><path d="M22.7 78C21.4333 77.8667 20.1667 77.7333 18.9 77.6C18.1202 77.5567 17.3263 77.4993 16.5183 77.4278C15.6779 77.3534 14.828 77.6077 14.2509 78.2231C13.4792 79.0461 12.8289 79.9384 12.3 80.9C11.6333 82.3 11.3 83.8667 11.3 85.6C11.3 85.7333 11.3 85.8667 11.3 86C11.3 86.1289 11.3 86.2579 11.3 86.3868C11.3 86.5288 11.3092 86.6707 11.3327 86.8107C11.7068 89.0439 12.8959 90.8071 14.9 92.1C16.9667 93.5 19.7667 94.2 23.3 94.2C25.4333 94.2 27.4 94 29.2 93.6C29.322 93.5782 29.4427 93.556 29.5621 93.5334C31.67 93.1338 33.9 94.6726 33.9 96.8181V98.6379C33.9 99.9291 33.0771 101.09 31.824 101.401C29.1407 102.067 26.166 102.4 22.9 102.4C18.1667 102.4 14.1333 101.8 10.8 100.6C7.46667 99.4 4.86667 97.7667 3 95.7C1.2 93.6333 0.2 91.3 0 88.7C0 88.1667 0 87.6 0 87C0.2 84.4 1.06667 82.1333 2.6 80.2C3.37034 79.2692 4.25658 78.3693 5.25873 77.5003C6.8834 76.0914 6.90665 73.3984 5.71749 71.6067C5.60753 71.441 5.5017 71.2721 5.4 71.1C4.53334 69.5667 4.1 67.9333 4.1 66.2V66.2C4.1 65.937 4.19454 65.6791 4.19983 65.4161C4.19994 65.4107 4.2 65.4054 4.2 65.4C4.33334 63.6 4.9 62 5.9 60.6C6.14956 60.2568 6.41372 59.9228 6.69247 59.5979C8.05721 58.0072 8.03751 55.4196 6.66237 53.8379C5.8407 52.8928 5.11991 51.8469 4.5 50.7C3.23334 48.2333 2.6 45.3333 2.6 42C2.6 41.8667 2.6 41.7333 2.6 41.6C2.6 41.5746 2.60121 41.548 2.60363 41.5201C2.62847 41.2347 2.70382 40.9543 2.71957 40.6682C2.91484 37.1219 3.94165 34.0992 5.8 31.6C7.73334 29 10.2667 27.0333 13.4 25.7C16.6 24.3667 20.2 23.7 24.2 23.7C26.3333 23.7 28.3333 23.9 30.2 24.3C31.7568 24.578 33.2208 24.9951 34.592 25.5513C35.1245 25.7673 35.7025 25.8571 36.2714 25.7763L47.4784 24.1856C49.2849 23.9292 50.9 25.3313 50.9 27.1559V29.8C50.9 31.4569 49.5569 32.8 47.9 32.8H29C28.4667 32.7333 27.8667 32.7 27.2 32.7C26.7363 32.6485 26.2726 32.6169 25.8088 32.6052C25.5376 32.5983 25.2681 32.5601 25.0036 32.4996C23.9358 32.2552 22.8679 32.222 21.8 32.4C19.4667 32.7333 17.6333 33.7667 16.3 35.5C14.9667 37.2333 14.3 39.4 14.3 42C14.3 42.3009 14.3 42.6018 14.3 42.9028C14.3 43.1004 14.317 43.2983 14.3664 43.4897C14.4013 43.6251 14.4417 43.7605 14.4876 43.8959C14.5569 44.1 14.6166 44.3078 14.6573 44.5194C15.0908 46.7691 16.0716 48.5627 17.6 49.9C19.2667 51.3 21.3667 52 23.9 52C26.9 52 29.2667 51.1333 31 49.4C32.8 47.6 33.7 45.2 33.7 42.2C33.7 41.0667 33.5667 40.0667 33.3 39.2V39.2C32.966 38.0311 33.7823 36.7 34.9981 36.7H42.3331C43.5275 36.7 44.6389 37.4037 44.9128 38.5662C45.171 39.6613 45.3 40.8726 45.3 42.2C45.3 46.1333 44.3333 49.4333 42.4 52.1C40.5333 54.7667 37.9667 56.8 34.7 58.2C31.4333 59.6 27.7333 60.3 23.6 60.3C23.4667 60.3 23.3333 60.3 23.2 60.3C23.0667 60.3 22.9333 60.3 22.8 60.3C20.9696 60.253 19.2713 60.0574 17.7052 59.7131C16.5352 59.4559 15.2474 59.7663 14.6892 60.8263C14.6589 60.8837 14.6292 60.9416 14.6 61C14.3333 61.6 14.2 62.2667 14.2 63C14.2 63.3333 14.2333 63.6667 14.3 64C14.3225 64.0899 14.3487 64.1759 14.3788 64.2582C14.4912 64.5663 14.6347 64.865 14.752 65.1713C15.048 65.9442 15.5306 66.5538 16.2 67C17.0073 67.4347 17.959 67.7537 19.0554 67.957C19.2179 67.9871 19.3832 67.998 19.5482 68.0062C19.7011 68.0137 19.8541 68.0284 20.0071 68.05C20.2028 68.0777 20.3996 68.1 20.5972 68.1C20.848 68.1 21.1156 68.1 21.4 68.1L31.8 68.5C31.8048 68.5 31.8097 68.5 31.8145 68.5001C32.1433 68.5027 32.4712 68.6 32.8 68.6V68.6C37.8667 68.9333 41.8333 70.3667 44.7 72.9C47.6333 75.3667 49.2333 78.7333 49.5 83C49.5 83.8 49.4667 84.6333 49.4 85.5C49.0667 88.7 47.9 91.4333 45.9 93.7C44.7463 95.0075 43.3597 96.1598 41.7402 97.1567C39.9402 98.2647 37.8 96.8148 37.8 94.7011V88.3C37.8 87.1667 37.7 86.0667 37.5 85C37.3667 84 37.1 83.0333 36.7 82.1C36.1 80.8333 35.0667 79.9 33.6 79.3C32.2 78.7 30.3667 78.3333 28.1 78.2L22.7 78ZM99.1721 71.3815C99.4668 72.7404 98.7926 74.1346 97.496 74.6368C96.5279 75.0118 95.4875 75.3662 94.375 75.7C92.375 76.2333 90.3083 76.6667 88.175 77C86.1083 77.3333 84.075 77.5 82.075 77.5C76.8083 77.5 72.2417 76.4 68.375 74.2C64.575 71.9333 61.6417 68.7667 59.575 64.7C57.5083 60.6333 56.475 55.9333 56.475 50.6C56.475 47.8 56.775 45.2 57.375 42.8C57.8161 40.9866 58.3833 39.3354 59.0765 37.8464C59.5309 36.8704 60.5394 36.3 61.616 36.3H67.424C69.2669 36.3 70.4804 38.4594 69.875 40.2V40.2C69.6479 40.853 69.451 41.5544 69.2843 42.3041C68.8974 44.0444 70.3291 45.5848 72.1117 45.5674L86.6528 45.4256C88.1545 45.4109 89.446 44.2852 89.4174 42.7837C89.3946 41.5884 89.2471 40.4272 88.975 39.3C88.5083 37.3 87.6083 35.6667 86.275 34.4C84.9417 33.1333 83.0417 32.5 80.575 32.5H68.3361C65.89 32.5 64.5916 29.7879 66.5341 28.3011C67.708 27.4026 68.9883 26.6356 70.375 26C73.575 24.4667 77.1417 23.7 81.075 23.7C85.1417 23.7 88.575 24.4667 91.375 26C94.175 27.4667 96.3417 29.5 97.875 32.1C99.4749 34.7 100.442 37.7 100.775 41.1C101.109 43.8823 101.071 46.7576 100.662 49.7258C100.511 50.8219 99.7185 51.7206 98.6368 51.9537C97.4413 52.2113 96.0207 52.4268 94.375 52.6C91.8417 52.8667 89.075 53.0667 86.075 53.2C83.075 53.3333 80.075 53.4333 77.075 53.5C75.4305 53.5 73.8593 53.4895 72.3614 53.4686C70.561 53.4434 69.0979 54.9888 69.4962 56.7447C69.9555 58.7697 70.6485 60.4882 71.575 61.9C73.0417 64.0333 74.875 65.5667 77.075 66.5C79.3417 67.3667 81.7417 67.8 84.275 67.8C86.6083 67.8 88.975 67.5667 91.375 67.1C92.5164 66.8841 93.5935 66.6467 94.6064 66.388C96.3608 65.9398 98.2152 66.9688 98.599 68.7384L99.1721 71.3815ZM135.649 24.8078C137.345 24.7489 138.753 26.1083 138.753 27.806V31.1C138.753 32.7569 137.41 34.1 135.753 34.1H107.253C105.596 34.1 104.253 32.7569 104.253 31.1V28.7896C104.253 27.1765 105.529 25.8522 107.14 25.7917L109.663 25.6971C111.15 25.6413 112.372 24.5033 112.533 23.0234L113.515 13.9904C113.656 12.687 114.628 11.6266 115.914 11.3718L120.77 10.4098C122.625 10.0424 124.353 11.4617 124.353 13.3526V22.094C124.353 23.7917 125.76 25.1511 127.457 25.0922L135.649 24.8078ZM139.668 72.689C139.832 74.1399 138.93 75.5024 137.516 75.8705C136.583 76.1137 135.595 76.3568 134.553 76.6C132.553 77.1333 130.387 77.4 128.053 77.4C124.92 77.4 122.12 76.8333 119.653 75.7C117.253 74.5 115.353 72.5333 113.953 69.8C112.62 67 111.953 63.2 111.953 58.4V41C111.953 39.3431 113.296 38 114.953 38H121.353C123.01 38 124.353 39.3431 124.353 41V58.3C124.353 60.0333 124.553 61.5667 124.953 62.9C125.353 64.2333 126.12 65.2667 127.253 66C128.453 66.7333 130.153 67.1 132.353 67.1C133.287 67.1 134.32 67.0667 135.453 67C135.511 66.9935 135.57 66.9868 135.628 66.98C137.413 66.7715 139.131 67.9698 139.334 69.7552L139.668 72.689ZM157.078 50.5C157.078 53.4333 157.412 56.0333 158.078 58.3C158.154 58.5495 158.231 58.7948 158.31 59.0357C159.04 61.2593 157.481 63.9 155.141 63.9H148.77C147.666 63.9 146.635 63.3006 146.202 62.2854C144.853 59.1259 144.178 55.3641 144.178 51C144.178 45.5333 145.178 40.7667 147.178 36.7C149.178 32.5667 152.078 29.3667 155.878 27.1C159.678 24.8333 164.278 23.7 169.678 23.7C172.478 23.7 175.145 24 177.678 24.6C179.449 25.0087 181.05 25.5257 182.481 26.1509C183.646 26.6602 184.226 27.9367 183.998 29.1879L183.454 32.181C183.108 34.0819 181.081 35.1556 179.225 34.6161C178.382 34.3708 177.533 34.1654 176.678 34C174.678 33.5333 172.778 33.3 170.978 33.3C167.645 33.3 164.978 34.0333 162.978 35.5C160.978 36.9667 159.478 39 158.478 41.6C157.545 44.2 157.078 47.1667 157.078 50.5ZM169.578 77.4C164.778 77.4 160.678 76.5333 157.278 74.8C155.677 73.984 154.239 73.0349 152.964 71.9528C151.142 70.4073 152.46 67.8 154.849 67.8H171.278C173.478 67.8 175.545 67.6333 177.478 67.3C178.229 67.1497 178.957 66.99 179.662 66.8209C181.431 66.3961 183.257 67.4984 183.569 69.2912L184.067 72.1435C184.307 73.5222 183.566 74.8962 182.239 75.3393C180.766 75.8309 179.179 76.2511 177.478 76.6C174.945 77.1333 172.312 77.4 169.578 77.4ZM221.327 32.3137C221.259 33.8843 219.988 35.1261 218.421 35.2517C217.127 35.3555 215.855 35.5049 214.606 35.7C213.926 35.785 213.264 35.8834 212.618 35.9954C210.642 36.3382 208.706 34.8876 208.706 32.8823V28.838C208.706 27.8171 209.218 26.8522 210.118 26.3702C211.6 25.576 213.196 24.9526 214.906 24.5C216.131 24.1758 217.356 23.9392 218.58 23.7902C220.276 23.5839 221.644 25.0239 221.57 26.7303L221.327 32.3137ZM201.436 24.391C203.287 24.0327 205.006 25.4508 205.006 27.3363V73.2C205.006 74.8569 203.663 76.2 202.006 76.2H195.606C193.949 76.2 192.606 74.8569 192.606 73.2V28.575C192.606 27.138 193.625 25.9028 195.036 25.6297L201.436 24.391ZM246.445 23.7C250.979 23.7 254.579 24.4333 257.245 25.9C259.979 27.3 261.912 29.4 263.045 32.2C264.245 35 264.845 38.5667 264.845 42.9V43.6V43.6C264.845 44.0418 264.487 44.4 264.045 44.4H255.474C253.885 44.4 252.601 43.1552 252.331 41.5897C252.142 40.4893 251.88 39.4928 251.545 38.6C251.012 37 250.112 35.7667 248.845 34.9C247.579 34.0333 245.779 33.6 243.445 33.6C241.645 33.6 239.479 33.8667 236.945 34.4C235.31 34.7012 233.551 35.1134 231.666 35.6367C229.939 36.116 228.14 35.0597 227.793 33.3022L227.169 30.1506C226.871 28.644 227.758 27.152 229.233 26.7243C231.911 25.9481 234.415 25.3067 236.745 24.8C239.812 24.0667 243.045 23.7 246.445 23.7ZM242.745 68.9C243.679 68.9 244.679 68.8 245.745 68.6V68.6C247.385 68.1901 249.064 69.229 249.539 70.851C249.574 70.9685 249.609 71.0848 249.645 71.2C249.662 71.2449 249.679 71.2897 249.696 71.3344C250.311 72.9428 249.753 74.863 248.142 75.4703C247.061 75.8775 245.962 76.2208 244.845 76.5C242.712 77.1 240.612 77.4 238.545 77.4C234.145 77.4 230.545 76.1667 227.745 73.7C224.945 71.2333 223.545 67.8667 223.545 63.6C223.545 59 225.345 55.4667 228.945 53C232.545 50.5333 237.845 49.0667 244.845 48.6C245.645 48.5333 246.445 48.5 247.245 48.5C248.045 48.4333 248.845 48.4 249.645 48.4H250.445L256.445 48.3H261.845C263.502 48.3 264.845 49.6431 264.845 51.3V58.9C264.845 59.7 264.845 60.4667 264.845 61.2C264.912 61.9333 265.012 62.6333 265.145 63.3C265.479 66.5667 267.145 68.2 270.145 68.2C270.582 68.2 271.019 68.2 271.456 68.2C271.515 68.2 271.569 68.1965 271.628 68.1882V68.1882C272.377 68.0822 273.045 68.6679 273.045 69.424V73.7195C273.045 74.8171 272.453 75.852 271.419 76.2206C271.138 76.3207 270.847 76.4138 270.545 76.5C269.679 76.8333 268.645 77.0667 267.445 77.2C266.045 77.3333 264.679 77.3333 263.345 77.2C260.612 76.8667 258.412 75.9 256.745 74.3C255.079 72.6333 254.012 70.3 253.545 67.3C253.279 65.5667 253.079 63.7333 252.945 61.8C252.876 60.7936 252.824 59.7602 252.791 58.6996C252.739 57.0436 251.402 55.7 249.745 55.7H247.845C247.312 55.7 246.779 55.7333 246.245 55.8C245.779 55.8 245.345 55.8 244.945 55.8C241.479 56 239.012 56.7 237.545 57.9C236.079 59.1 235.345 60.7 235.345 62.7C235.345 64.7667 236.012 66.3333 237.345 67.4C238.679 68.4 240.479 68.9 242.745 68.9ZM290 50.5C290 53.4333 290.333 56.0333 291 58.3C291.076 58.5495 291.153 58.7948 291.232 59.0357C291.962 61.2593 290.403 63.9 288.063 63.9H281.692C280.588 63.9 279.557 63.3008 279.124 62.286C277.774 59.1263 277.1 55.3643 277.1 51C277.1 45.5333 278.1 40.7667 280.1 36.7C282.1 32.5667 285 29.3667 288.8 27.1C292.6 24.8333 297.2 23.7 302.6 23.7C305.4 23.7 308.067 24 310.6 24.6C312.371 25.0087 313.972 25.5257 315.402 26.1509C316.568 26.6602 317.148 27.937 316.92 29.1885L316.376 32.181C316.03 34.0819 314.003 35.1556 312.147 34.6161C311.304 34.3708 310.455 34.1654 309.6 34C307.6 33.5333 305.7 33.3 303.9 33.3C300.567 33.3 297.9 34.0333 295.9 35.5C293.9 36.9667 292.4 39 291.4 41.6C290.467 44.2 290 47.1667 290 50.5ZM302.5 77.4C297.7 77.4 293.6 76.5333 290.2 74.8C288.599 73.9837 287.16 73.0344 285.884 71.9519C284.063 70.4066 285.381 67.8 287.77 67.8H304.2C306.4 67.8 308.467 67.6333 310.4 67.3C311.152 67.1497 311.88 66.9899 312.584 66.8207C314.354 66.3958 316.179 67.498 316.491 69.2906L316.989 72.1431C317.229 73.522 316.488 74.8962 315.16 75.3393C313.687 75.8309 312.101 76.2511 310.4 76.6C307.867 77.1333 305.233 77.4 302.5 77.4ZM337.928 73.2C337.928 74.8569 336.585 76.2 334.928 76.2H328.528C326.871 76.2 325.528 74.8569 325.528 73.2V4.87503C325.528 3.43798 326.547 2.20276 327.958 1.92969L334.358 0.690981C336.209 0.332686 337.928 1.75078 337.928 3.63632V73.2ZM362.958 24.9C365.424 24.9 366.837 27.7113 365.365 29.6904L347.335 53.9304C345.611 56.2485 341.928 55.029 341.928 52.14V43.4582C341.928 42.7734 342.162 42.1092 342.592 41.576L355.127 26.0178C355.697 25.311 356.556 24.9 357.463 24.9H362.958ZM358.138 76.2C357.188 76.2 356.294 75.7498 355.728 74.9865L347.317 63.6396C346.548 62.601 346.53 61.186 347.273 60.1283L351.349 54.3276C352.551 52.6178 355.088 52.6295 356.274 54.3504L368.088 71.4979C369.46 73.4882 368.035 76.2 365.618 76.2H358.138ZM415.508 71.3816C415.803 72.7404 415.129 74.1346 413.832 74.6368C412.864 75.0118 411.823 75.3662 410.711 75.7C408.711 76.2333 406.644 76.6667 404.511 77C402.444 77.3333 400.411 77.5 398.411 77.5C393.144 77.5 388.578 76.4 384.711 74.2C380.911 71.9333 377.978 68.7667 375.911 64.7C373.844 60.6333 372.811 55.9333 372.811 50.6C372.811 47.8 373.111 45.2 373.711 42.8C374.152 40.9865 374.719 39.3352 375.412 37.8461C375.867 36.8702 376.875 36.3 377.952 36.3H383.76C385.603 36.3 386.816 38.4591 386.211 40.2V40.2C385.984 40.853 385.787 41.5544 385.62 42.3042C385.233 44.0444 386.665 45.5848 388.448 45.5674L402.989 45.4256C404.491 45.4109 405.782 44.2854 405.753 42.7841C405.731 41.5887 405.583 40.4273 405.311 39.3C404.844 37.3 403.944 35.6667 402.611 34.4C401.278 33.1333 399.378 32.5 396.911 32.5H384.673C382.226 32.5 380.928 29.7876 382.87 28.3009C384.044 27.4025 385.324 26.6355 386.711 26C389.911 24.4667 393.478 23.7 397.411 23.7C401.478 23.7 404.911 24.4667 407.711 26C410.511 27.4667 412.678 29.5 414.211 32.1C415.811 34.7 416.778 37.7 417.111 41.1C417.445 43.8823 417.407 46.7575 416.998 49.7256C416.847 50.8219 416.054 51.7206 414.973 51.9537C413.777 52.2113 412.356 52.4267 410.711 52.6C408.178 52.8667 405.411 53.0667 402.411 53.2C399.411 53.3333 396.411 53.4333 393.411 53.5C391.766 53.5 390.195 53.4895 388.697 53.4686C386.897 53.4434 385.434 54.9886 385.832 56.7445C386.291 58.7696 386.984 60.4881 387.911 61.9C389.378 64.0333 391.211 65.5667 393.411 66.5C395.678 67.3667 398.078 67.8 400.611 67.8C402.944 67.8 405.311 67.5667 407.711 67.1C408.853 66.884 409.93 66.6467 410.943 66.3879C412.697 65.9397 414.551 66.9687 414.935 68.7381L415.508 71.3816ZM447.989 67.2C449.056 67.2 450.156 67.0667 451.289 66.8V66.8C452.846 66.4539 454.589 67.5268 454.589 69.1222V73.1591C454.589 74.2357 454.02 75.2492 453.036 75.6844C451.105 76.538 448.989 77.0432 446.689 77.2C445.489 77.3333 444.322 77.3667 443.189 77.3C440.656 77.1 438.256 76.4333 435.989 75.3C433.722 74.1 431.689 72.4333 429.889 70.3C428.156 68.1667 426.756 65.5333 425.689 62.4C424.689 59.2 424.189 55.4667 424.189 51.2C424.189 46.6 424.822 42.6333 426.089 39.3C427.356 35.9 429.022 33.1 431.089 30.9C433.222 28.6333 435.589 26.9333 438.189 25.8C440.789 24.6 443.422 23.9 446.089 23.7C446.956 23.7 447.822 23.7 448.689 23.7C450.422 23.8333 452.122 24.1667 453.789 24.7C453.812 24.7063 453.834 24.7127 453.857 24.7191C456.067 25.3457 458.589 23.855 458.589 21.5577V4.87121C458.589 3.43587 459.606 2.20162 461.014 1.92674L467.314 0.697469C469.167 0.336013 470.889 1.75455 470.889 3.64194V32.4C470.889 34.0569 469.546 35.4 467.889 35.4H464.096C463.892 35.4 463.688 35.3789 463.488 35.3387C461.632 34.9658 459.565 34.653 457.289 34.4C454.956 34.0667 452.756 33.9 450.689 33.9C450.222 33.9 449.756 33.9 449.289 33.9C448.822 33.9 448.356 33.9333 447.889 34C444.289 34.3333 441.556 35.9667 439.689 38.9C437.822 41.7667 436.889 45.8333 436.889 51.1C436.889 56.7 437.889 60.8 439.889 63.4C441.956 65.9333 444.656 67.2 447.989 67.2ZM462.712 76.2C461.254 76.2 460.006 75.151 459.757 73.714L458.633 67.2551C458.604 67.0854 458.589 66.9134 458.589 66.7411V42.3C458.589 40.6431 459.932 39.3 461.589 39.3H467.889C469.546 39.3 470.889 40.6431 470.889 42.3V73.2C470.889 74.8569 469.546 76.2 467.889 76.2H462.712Z" fill="currentColor"></path></svg>