<svg version="1.1" id="Layer_1" xmlns="http://www.w3.org/2000/svg" xmlns:xlink="http://www.w3.org/1999/xlink" x="0px" y="0px"
	 width="100%" viewBox="0 0 1024 161" enable-background="new 0 0 1024 161" xml:space="preserve">
<path fill="#000000" opacity="1.000000" stroke="none" 
	d="
M969.000000,162.000000 
	C646.000000,162.000000 323.500000,162.000000 1.000000,162.000000 
	C1.000000,108.333336 1.000000,54.666668 1.000000,1.000000 
	C342.333344,1.000000 683.666687,1.000000 1025.000000,1.000000 
	C1025.000000,54.666668 1025.000000,108.333336 1025.000000,162.000000 
	C1006.500000,162.000000 988.000000,162.000000 969.000000,162.000000 
M553.733276,100.556870 
	C553.579712,100.305313 553.355652,100.173973 552.474243,99.823090 
	C551.127014,98.602463 549.779846,97.381836 548.723511,96.424805 
	C549.806091,91.674225 551.692017,87.191002 551.656921,82.722839 
	C551.593750,74.661705 550.558350,66.831635 544.219849,60.371532 
	C536.245361,52.244011 526.492920,50.943676 516.396057,52.423935 
	C511.009857,53.213593 505.351746,55.996021 501.031586,59.414700 
	C491.860046,66.672302 491.841370,77.387497 493.631958,87.647659 
	C494.490967,92.569740 496.916199,98.143013 500.455933,101.495979 
	C510.305817,110.826172 522.356506,110.757195 534.820251,107.235695 
	C537.124268,106.584717 539.993835,107.388916 542.460388,108.050728 
	C544.116882,108.495201 545.523193,109.872345 547.260437,110.970665 
	C548.956055,109.154472 550.504639,107.495735 552.443176,105.733360 
	C552.694763,105.579811 552.826050,105.355774 553.002808,104.366562 
	C553.280884,103.226646 553.558960,102.086731 553.733276,100.556870 
M52.083862,61.195541 
	C53.332516,60.945461 54.890121,60.085506 55.782963,60.537804 
	C67.143280,66.292702 79.086754,64.548668 90.649681,62.448643 
	C98.728294,60.981426 106.353882,57.082615 114.227127,54.403004 
	C121.190407,52.033089 128.292587,51.803947 135.400940,53.740047 
	C147.359421,56.997185 159.131989,61.425072 171.299591,63.263649 
	C180.196167,64.607956 189.696243,63.216301 198.745956,61.846210 
	C204.764893,60.934963 210.646317,58.312962 216.269730,55.754326 
	C229.020218,49.952877 241.031357,53.381886 253.267105,57.541763 
	C262.201569,60.579277 270.905884,64.262451 280.816071,64.200943 
	C290.210449,64.142639 298.959381,62.625610 307.487396,58.802341 
	C317.462799,54.330185 319.015869,52.038940 317.426056,41.855240 
	C314.502594,43.151680 311.706726,44.409256 308.896545,45.634010 
	C303.237885,48.100231 297.718384,50.998070 291.876648,52.907768 
	C280.795898,56.530125 270.443573,52.461510 260.313110,48.596432 
	C251.380676,45.188438 242.413788,42.225639 232.774017,42.019592 
	C222.582611,41.801758 213.200577,44.916500 203.728073,48.429790 
	C196.313782,51.179695 188.103561,54.151287 180.528641,53.539131 
	C169.483093,52.646503 158.497086,49.219326 147.851578,45.749989 
	C139.519730,43.034664 131.162994,42.052082 122.622467,42.112488 
	C111.285698,42.192665 100.989365,46.889679 90.736900,50.887634 
	C76.720650,56.353283 64.101974,54.423885 51.916428,46.389874 
	C49.539364,44.822659 47.125698,43.310963 44.086548,41.361645 
	C44.086548,45.626118 43.309563,49.059330 44.319622,51.844440 
	C45.211014,54.302334 48.096336,56.037102 51.035240,59.048088 
	C47.696140,58.383865 45.996143,58.045700 43.548328,57.558777 
	C44.039890,63.720200 44.493996,69.412086 45.256832,75.719551 
	C46.490208,77.441757 47.723583,79.163971 48.253159,80.671211 
	C47.080437,80.042450 45.907719,79.413689 44.000000,78.390846 
	C44.000000,85.721313 44.534870,92.078201 43.862823,98.304817 
	C43.046978,105.863754 45.164150,111.356026 52.157322,114.643158 
	C53.748600,115.391144 55.520119,115.787140 57.046585,116.636475 
	C67.499222,122.452339 78.593422,120.723175 89.333443,118.580772 
	C96.596481,117.131950 103.397614,113.467186 110.488541,111.036201 
	C128.157669,104.978668 144.556961,111.213737 160.692993,117.110542 
	C172.390717,121.385406 184.053513,120.770271 195.666626,118.732750 
	C202.269363,117.574303 208.543457,114.256592 214.813736,111.558487 
	C223.585709,107.783905 232.870071,108.000221 241.669891,109.615005 
	C250.216644,111.183350 258.232544,115.473503 266.616089,118.146523 
	C276.583374,121.324501 286.930817,121.426765 296.789093,118.397919 
	C303.844604,116.230202 310.294769,112.092232 317.499420,108.853607 
	C317.848877,108.675148 317.960205,108.400261 317.962250,107.095749 
	C317.919281,98.058815 317.876312,89.021889 317.853607,79.500587 
	C317.675140,79.151138 317.400238,79.039833 316.276886,79.039734 
	C315.517975,79.082047 314.759033,79.124352 313.292419,78.993088 
	C313.359161,78.334702 313.200562,77.515594 313.534332,77.047707 
	C314.586426,75.572792 316.698669,74.305893 316.828003,72.821465 
	C317.254181,67.930145 316.988495,62.978554 316.988495,57.222916 
	C314.807709,58.195759 313.326202,58.728382 311.968231,59.483253 
	C303.087219,64.419975 294.255127,69.107895 283.565552,69.106689 
	C273.774200,69.105591 265.040985,65.714394 256.014465,62.686409 
	C248.326157,60.107334 240.279068,57.974152 232.241684,57.208878 
	C220.818848,56.121262 210.465393,61.346401 200.224808,65.544617 
	C191.462341,69.136871 182.426727,70.115852 173.588318,68.496925 
	C162.615921,66.487106 151.894272,62.914478 141.220001,59.526363 
	C130.961487,56.270210 120.925941,56.389038 110.756477,59.605343 
	C101.345314,62.581818 91.980530,65.788788 82.415474,68.172707 
	C71.507805,70.891258 61.334881,68.330307 52.083862,61.195541 
M812.122986,71.319275 
	C811.023438,69.316444 809.830505,67.358551 808.840881,65.302811 
	C805.075134,57.480560 800.140198,51.658405 790.221741,53.996048 
	C790.064026,54.033215 789.889954,54.000362 789.723511,54.001194 
	C783.042725,54.034595 783.015747,54.034576 783.007019,60.505562 
	C782.988647,74.155350 782.988953,87.805191 783.006775,101.454979 
	C783.015259,107.981293 783.041382,107.981789 789.681641,107.997711 
	C790.513916,107.999702 791.355164,107.912460 792.177002,108.003738 
	C795.900513,108.417282 797.142517,106.717491 797.047180,103.088966 
	C796.859070,95.936195 796.969849,88.774605 797.023499,81.617157 
	C797.035889,79.956062 797.315125,78.296974 797.471558,76.636955 
	C804.140198,85.222298 809.631958,93.949959 814.872070,102.826218 
	C816.780151,106.058334 818.783569,108.451286 822.959778,108.035812 
	C825.267456,107.806213 827.634277,107.809555 829.943115,108.032295 
	C833.951660,108.419029 835.100952,106.629929 835.054810,102.819954 
	C834.895691,89.671494 834.999146,76.519867 834.999451,63.369442 
	C834.999634,53.393562 835.002075,53.490551 825.147461,53.962708 
	C822.217163,54.103104 820.922913,55.064407 820.989075,58.083553 
	C821.105774,63.407524 821.052673,68.736801 820.980408,74.062630 
	C820.946167,76.582909 820.703491,79.100365 820.555298,81.619095 
	C820.048096,81.751144 819.540833,81.883186 819.033569,82.015228 
	C816.852234,78.667381 814.670898,75.319534 812.122986,71.319275 
M884.770142,107.997978 
	C886.603455,107.998283 888.436829,108.005798 890.270081,107.997597 
	C896.957458,107.967659 896.983765,107.965721 896.993042,101.486656 
	C897.011963,88.320419 897.003174,75.154152 896.998413,61.987892 
	C896.995483,53.897373 896.989319,53.897446 888.746887,54.003304 
	C888.413574,54.007584 888.075806,54.044868 887.747620,54.005039 
	C883.922485,53.540829 882.854370,55.435932 882.953918,58.995808 
	C883.140198,65.656921 883.031738,72.327461 882.970764,78.993385 
	C882.957397,80.453545 882.629517,81.910820 882.446472,83.369415 
	C878.460815,78.902046 875.495789,74.427155 872.830750,69.780258 
	C867.678467,60.796795 863.572998,50.442051 849.844727,54.000462 
	C849.530945,54.081795 849.179077,54.046295 848.847595,54.024891 
	C846.080750,53.846233 844.993225,55.167366 845.002991,57.896633 
	C845.058533,73.395729 845.003479,88.895325 845.110779,104.393867 
	C845.118408,105.496048 846.055054,107.494148 846.675720,107.541100 
	C850.295471,107.814911 854.120605,108.225906 857.494507,107.258621 
	C858.588318,106.945038 858.873962,102.623894 858.935120,100.121338 
	C859.115906,92.727516 858.999756,85.326439 858.999756,76.493736 
	C861.260315,78.857597 862.597900,79.864662 863.428711,81.189484 
	C868.242126,88.865860 873.102600,96.522423 877.579407,104.394821 
	C879.130798,107.122932 880.854614,108.373405 884.770142,107.997978 
M665.000000,80.500000 
	C665.000000,86.657623 664.998657,92.815254 665.000244,98.972878 
	C665.002747,108.516144 664.999329,108.393196 674.690979,108.050003 
	C677.938660,107.935005 679.112671,106.742050 679.022461,103.579689 
	C678.884827,98.757835 679.102966,93.926308 678.989380,89.103134 
	C678.918823,86.103821 680.162231,84.904572 683.132690,84.991768 
	C687.289551,85.113785 691.457031,85.135315 695.611755,84.980453 
	C698.808777,84.861290 700.114014,86.113319 700.023132,89.347580 
	C699.882996,94.335617 699.781494,99.351257 700.197388,104.310417 
	C700.306458,105.611099 702.181702,107.270714 703.609253,107.818703 
	C705.206299,108.431763 707.219482,107.903961 709.046143,107.989098 
	C711.728577,108.114105 713.003235,107.035744 712.993652,104.222458 
	C712.940796,88.745544 713.011169,73.268021 712.885925,57.791943 
	C712.876221,56.592239 711.970703,54.719124 711.001465,54.317459 
	C704.334106,51.554516 700.013489,54.539234 700.000366,61.655788 
	C699.999756,61.988632 700.004333,62.321545 699.999390,62.654316 
	C699.823730,74.466270 701.475159,72.971001 689.630493,72.959579 
	C677.407837,72.947800 679.148254,74.567261 679.016602,62.415783 
	C678.923279,53.801353 678.992310,53.953922 670.198364,53.935341 
	C666.424133,53.927364 664.782898,54.991497 664.936768,59.032818 
	C665.196167,65.846138 665.002930,72.676697 665.000000,80.500000 
M653.988342,58.641720 
	C654.356323,55.225552 652.889404,53.905472 649.409546,53.960854 
	C639.753113,54.114532 630.091736,54.087967 620.434204,53.975796 
	C617.281555,53.939178 615.954529,55.029430 615.975952,58.304867 
	C616.075195,73.458672 616.054871,88.613625 615.990601,103.767799 
	C615.978394,106.641701 616.915955,108.038612 620.007019,108.011078 
	C630.664185,107.916130 641.323242,107.916557 651.980469,108.011421 
	C655.057129,108.038803 656.171875,106.676743 655.995483,103.783905 
	C655.904480,102.290771 655.882446,100.779663 656.000916,99.290321 
	C656.263062,95.994560 654.693787,94.900673 651.553955,94.977104 
	C646.061890,95.110786 640.563110,94.945023 635.068542,95.014397 
	C632.122253,95.051598 629.891968,94.827332 629.956482,90.852531 
	C630.016968,87.124153 632.152344,86.957970 634.860840,86.997078 
	C638.190796,87.045166 641.521973,87.003220 644.852661,86.999741 
	C653.404541,86.990791 653.283691,86.994034 653.046875,78.418457 
	C652.959778,75.266029 651.953735,73.882317 648.685181,73.976753 
	C643.694031,74.120949 638.693542,73.912170 633.699280,73.992928 
	C630.816772,74.039543 630.002319,72.625565 629.996765,69.983177 
	C629.991150,67.308662 630.881653,65.953911 633.733154,66.006462 
	C638.394226,66.092354 643.088257,65.673836 647.713196,66.086998 
	C652.923279,66.552437 654.739746,64.459961 653.988342,58.641720 
M944.674255,105.943298 
	C949.571838,109.906616 954.971680,107.360962 960.597229,107.821869 
	C960.300110,106.473801 960.257019,105.821220 960.016296,105.252251 
	C953.415588,89.651855 946.816833,74.050552 940.161926,58.473251 
	C938.467407,54.507004 928.994080,52.040695 925.620056,54.652149 
	C925.004028,55.128956 924.598450,55.971439 924.278320,56.722885 
	C918.802673,69.578163 913.348022,82.442390 907.907288,95.312500 
	C906.276550,99.169968 904.702393,103.051331 902.697449,107.900932 
	C907.906433,107.900932 912.171814,108.074898 916.401855,107.766304 
	C917.341553,107.697754 918.298157,106.018860 919.001282,104.923683 
	C920.575806,102.471237 921.642517,98.126350 923.546143,97.751442 
	C928.822632,96.712265 934.556335,96.613037 939.821594,97.630859 
	C941.720581,97.997948 942.800781,102.600456 944.674255,105.943298 
M729.202393,107.994156 
	C732.749146,108.481194 735.087646,106.819778 735.926880,103.542603 
	C737.396240,97.804596 741.082275,96.088821 746.534668,96.985588 
	C747.183289,97.092262 747.884644,97.105789 748.527710,96.983849 
	C755.393250,95.681885 759.064758,99.001106 761.014282,105.248520 
	C761.353577,106.335678 762.832764,107.714142 763.890747,107.811241 
	C767.356995,108.129417 770.896057,108.137489 774.350647,107.754845 
	C775.195984,107.661209 776.664185,105.361656 776.403625,104.526093 
	C775.482605,101.572647 773.896057,98.831963 772.633423,95.978928 
	C767.103882,83.484001 761.063416,71.176498 756.326599,58.386837 
	C754.164368,52.548817 750.386108,54.460472 746.803101,54.012810 
	C743.124084,53.553150 741.331970,55.134838 739.892090,58.735420 
	C735.807922,68.948380 731.023193,78.878799 726.666260,88.985970 
	C724.080261,94.984901 721.781311,101.107597 719.023926,107.997887 
	C722.710449,107.997887 725.509583,107.997887 729.202393,107.994156 
M421.139679,108.989037 
	C429.635681,109.505745 439.958801,98.731941 439.193939,89.681725 
	C438.341705,79.597816 438.720093,69.376282 439.103149,59.235062 
	C439.310059,53.757736 436.258179,53.949444 432.502441,53.951702 
	C428.752838,53.953953 425.654327,53.744801 425.899231,59.230743 
	C426.292328,68.036598 426.095734,76.875450 425.940887,85.696716 
	C425.840027,91.443336 421.164886,96.817062 416.558899,96.926590 
	C411.883301,97.037773 407.063507,91.366829 407.019806,85.561691 
	C406.963379,78.070137 407.002441,70.577881 406.999878,63.085926 
	C406.996643,53.511646 407.000366,53.629372 397.361145,53.951405 
	C394.159241,54.058372 392.936554,55.161350 392.975586,58.370728 
	C393.095001,68.192001 392.599518,78.039528 393.152802,87.831100 
	C393.635559,96.374840 396.190002,104.564865 405.509308,107.448631 
	C410.131348,108.878883 415.301971,108.536270 421.139679,108.989037 
M576.182556,92.114326 
	C575.455811,89.276131 574.223328,86.459351 574.101990,83.595512 
	C573.799072,76.443321 574.004089,69.269760 573.999084,62.104774 
	C573.993103,53.571743 573.993958,53.699234 565.366943,53.951313 
	C562.161987,54.044968 560.941223,55.154911 560.975342,58.369663 
	C561.090210,69.199173 560.871338,80.033592 561.083618,90.860184 
	C561.206665,97.133881 563.888794,102.199783 569.390381,105.698944 
	C577.245850,110.695274 585.760559,110.086784 593.870972,107.654518 
	C601.058655,105.498985 605.919067,100.269867 606.093079,91.943176 
	C606.325623,80.815392 606.555969,69.684715 607.038818,58.566200 
	C607.280884,52.993046 603.498047,54.134415 600.326538,54.002586 
	C596.836182,53.857510 593.725830,53.672337 593.919556,58.914104 
	C594.239380,67.566437 594.167114,76.245331 593.908142,84.902496 
	C593.751892,90.125328 590.836792,94.016792 586.176758,96.257904 
	C581.994080,98.269455 579.438843,94.966827 576.182556,92.114326 
M466.966400,87.449272 
	C469.035004,88.789520 471.103577,90.129761 473.295044,91.549606 
	C467.659729,97.902786 465.540436,98.360680 459.586090,94.231316 
	C456.049194,91.778435 453.351776,91.559547 450.932190,95.482399 
	C450.419495,96.313675 449.547455,96.914986 448.901855,97.674011 
	C445.325226,101.879112 445.679962,104.715721 451.085144,106.291664 
	C456.684296,107.924179 462.671692,108.632523 468.526398,108.885338 
	C477.220703,109.260773 485.503876,102.706398 485.975128,95.843460 
	C486.836365,83.302391 482.108521,76.738243 471.267853,74.871735 
	C468.737030,74.435989 466.247437,73.172058 463.997101,71.849739 
	C461.380981,70.312469 461.579956,67.037033 464.559174,66.281883 
	C467.564148,65.520195 471.385468,65.193176 474.021454,66.434021 
	C477.705078,68.168007 479.548676,66.590424 481.673645,64.484436 
	C482.604767,63.561600 483.213196,62.314655 484.138306,61.384007 
	C487.169434,58.334686 485.706329,56.206116 482.577850,54.940971 
	C474.358002,51.616894 465.855194,50.229099 457.510498,54.134945 
	C452.645966,56.411850 448.580475,60.022205 448.063019,65.955162 
	C447.487396,72.554726 447.338715,79.156219 454.838684,82.454857 
	C458.608734,84.112984 462.469513,85.564926 466.966400,87.449272 
M384.620911,55.933704 
	C376.569702,50.913536 362.244263,49.653996 353.478516,57.131710 
	C348.379730,61.481258 346.719604,67.421501 348.282104,73.718018 
	C349.568634,78.902420 353.266418,82.420761 358.605652,84.134132 
	C362.535248,85.395149 366.387695,86.974976 370.125397,88.730293 
	C372.996002,90.078438 373.499878,92.143723 370.941071,94.546463 
	C367.797363,97.498413 363.801239,97.842468 360.237946,94.550400 
	C356.585846,91.176277 354.009247,91.342583 351.550537,95.624413 
	C351.169891,96.287323 350.267059,96.633324 349.661652,97.187035 
	C346.076202,100.466248 346.569824,103.189903 350.615479,105.890045 
	C356.496765,109.815315 363.004669,109.016502 369.432373,108.974838 
	C377.344940,108.923553 385.293854,102.881310 385.950806,96.567635 
	C387.279175,83.800606 383.150055,77.226944 372.701599,74.947609 
	C370.007141,74.359802 367.300568,73.247391 364.951752,71.803177 
	C362.061584,70.026123 362.184875,67.179253 365.286591,66.179565 
	C368.047180,65.289833 371.322968,65.950333 374.369568,66.013870 
	C376.269348,66.053482 379.289612,67.051537 379.863373,66.241951 
	C382.009064,63.214432 387.886383,61.966316 384.620911,55.933704 
z"/>
<path fill="#005DB9" opacity="1.000000" stroke="none" 
	d="
M317.833344,79.984955 
	C317.876312,89.021889 317.919281,98.058815 317.755707,107.690529 
	C317.363312,108.460358 317.185272,108.643036 317.015045,108.833344 
	C310.294769,112.092232 303.844604,116.230202 296.789093,118.397919 
	C286.930817,121.426765 276.583374,121.324501 266.616089,118.146523 
	C258.232544,115.473503 250.216644,111.183350 241.669891,109.615005 
	C232.870071,108.000221 223.585709,107.783905 214.813736,111.558487 
	C208.543457,114.256592 202.269363,117.574303 195.666626,118.732750 
	C184.053513,120.770271 172.390717,121.385406 160.692993,117.110542 
	C144.556961,111.213737 128.157669,104.978668 110.488541,111.036201 
	C103.397614,113.467186 96.596481,117.131950 89.333443,118.580772 
	C78.593422,120.723175 67.499222,122.452339 57.046585,116.636475 
	C55.520119,115.787140 53.748600,115.391144 52.157322,114.643158 
	C45.164150,111.356026 43.046978,105.863754 43.862823,98.304817 
	C44.534870,92.078201 44.000000,85.721313 44.000000,78.390846 
	C45.907719,79.413689 47.080437,80.042450 48.759377,81.084618 
	C50.882912,82.652092 52.500225,83.806160 54.440681,85.116966 
	C61.613300,89.067665 69.146271,91.833435 76.743599,90.717072 
	C85.542351,89.424171 94.019653,86.011047 102.677811,83.671211 
	C108.918282,81.984756 115.152679,80.059784 121.519249,79.100121 
	C135.612732,76.975754 148.258850,82.942497 161.194077,87.063797 
	C170.983917,90.182945 180.874786,92.505363 191.080460,89.417648 
	C199.752838,86.793816 208.336594,83.865456 216.906967,80.918892 
	C229.082962,76.732697 240.981476,79.295746 252.764511,82.468552 
	C257.756348,83.812691 262.345825,86.650520 267.337433,87.996017 
	C272.832062,89.477097 278.635590,91.051659 284.202759,90.743980 
	C293.381195,90.236732 302.181122,87.404465 310.211853,81.908569 
	C311.695953,80.958618 312.848053,80.062645 314.000122,79.166664 
	C314.759033,79.124352 315.517975,79.082047 316.781097,79.245285 
	C317.460388,79.636681 317.643066,79.814720 317.833344,79.984955 
z"/>
<path fill="#005DB9" opacity="1.000000" stroke="none" 
	d="
M313.646271,79.079880 
	C312.848053,80.062645 311.695953,80.958618 310.039520,81.560829 
	C307.615143,81.431976 305.426605,81.054558 303.818970,81.850433 
	C293.916016,86.753052 283.364471,87.182632 272.979950,85.261467 
	C264.885834,83.764038 257.231964,80.025368 249.238876,77.797997 
	C243.289658,76.140182 237.006775,73.977242 231.060181,74.441765 
	C223.559494,75.027702 216.119019,77.672882 208.890656,80.130127 
	C199.860138,83.199997 190.970123,86.120789 181.216583,86.097511 
	C168.970779,86.068275 157.775238,82.314178 146.419708,78.375801 
	C139.707626,76.047897 132.328964,74.071350 125.377304,74.426643 
	C117.740067,74.816971 110.197800,77.894295 102.707245,80.114883 
	C93.462151,82.855629 84.475937,86.883522 74.528389,85.950264 
	C68.675056,85.401131 62.876942,84.279678 57.031219,83.616257 
	C56.122543,83.513123 55.091824,84.485306 54.117542,84.960228 
	C52.500225,83.806160 50.882912,82.652092 49.111275,81.192101 
	C47.723583,79.163971 46.490208,77.441757 45.235447,75.015869 
	C45.478374,72.215134 46.023769,70.107979 45.948872,68.023102 
	C45.789696,63.592060 47.782871,61.665894 52.114929,61.957935 
	C61.334881,68.330307 71.507805,70.891258 82.415474,68.172707 
	C91.980530,65.788788 101.345314,62.581818 110.756477,59.605343 
	C120.925941,56.389038 130.961487,56.270210 141.220001,59.526363 
	C151.894272,62.914478 162.615921,66.487106 173.588318,68.496925 
	C182.426727,70.115852 191.462341,69.136871 200.224808,65.544617 
	C210.465393,61.346401 220.818848,56.121262 232.241684,57.208878 
	C240.279068,57.974152 248.326157,60.107334 256.014465,62.686409 
	C265.040985,65.714394 273.774200,69.105591 283.565552,69.106689 
	C294.255127,69.107895 303.087219,64.419975 311.968231,59.483253 
	C313.326202,58.728382 314.807709,58.195759 316.988495,57.222916 
	C316.988495,62.978554 317.254181,67.930145 316.828003,72.821465 
	C316.698669,74.305893 314.586426,75.572792 313.534332,77.047707 
	C313.200562,77.515594 313.359161,78.334702 313.646271,79.079880 
z"/>
<path fill="#005DB9" opacity="1.000000" stroke="none" 
	d="
M52.099396,61.576736 
	C47.782871,61.665894 45.789696,63.592060 45.948872,68.023102 
	C46.023769,70.107979 45.478374,72.215134 45.081081,74.708084 
	C44.493996,69.412086 44.039890,63.720200 43.548328,57.558777 
	C45.996143,58.045700 47.696140,58.383865 51.035240,59.048088 
	C48.096336,56.037102 45.211014,54.302334 44.319622,51.844440 
	C43.309563,49.059330 44.086548,45.626118 44.086548,41.361645 
	C47.125698,43.310963 49.539364,44.822659 51.916428,46.389874 
	C64.101974,54.423885 76.720650,56.353283 90.736900,50.887634 
	C100.989365,46.889679 111.285698,42.192665 122.622467,42.112488 
	C131.162994,42.052082 139.519730,43.034664 147.851578,45.749989 
	C158.497086,49.219326 169.483093,52.646503 180.528641,53.539131 
	C188.103561,54.151287 196.313782,51.179695 203.728073,48.429790 
	C213.200577,44.916500 222.582611,41.801758 232.774017,42.019592 
	C242.413788,42.225639 251.380676,45.188438 260.313110,48.596432 
	C270.443573,52.461510 280.795898,56.530125 291.876648,52.907768 
	C297.718384,50.998070 303.237885,48.100231 308.896545,45.634010 
	C311.706726,44.409256 314.502594,43.151680 317.426056,41.855240 
	C319.015869,52.038940 317.462799,54.330185 307.487396,58.802341 
	C298.959381,62.625610 290.210449,64.142639 280.816071,64.200943 
	C270.905884,64.262451 262.201569,60.579277 253.267105,57.541763 
	C241.031357,53.381886 229.020218,49.952877 216.269730,55.754326 
	C210.646317,58.312962 204.764893,60.934963 198.745956,61.846210 
	C189.696243,63.216301 180.196167,64.607956 171.299591,63.263649 
	C159.131989,61.425072 147.359421,56.997185 135.400940,53.740047 
	C128.292587,51.803947 121.190407,52.033089 114.227127,54.403004 
	C106.353882,57.082615 98.728294,60.981426 90.649681,62.448643 
	C79.086754,64.548668 67.143280,66.292702 55.782963,60.537804 
	C54.890121,60.085506 53.332516,60.945461 52.099396,61.576736 
z"/>
<path fill="#1B355E" opacity="1.000000" stroke="none" 
	d="
M552.053284,105.837006 
	C550.504639,107.495735 548.956055,109.154472 547.260437,110.970665 
	C545.523193,109.872345 544.116882,108.495201 542.460388,108.050728 
	C539.993835,107.388916 537.124268,106.584717 534.820251,107.235695 
	C522.356506,110.757195 510.305817,110.826172 500.455933,101.495979 
	C496.916199,98.143013 494.490967,92.569740 493.631958,87.647659 
	C491.841370,77.387497 491.860046,66.672302 501.031586,59.414700 
	C505.351746,55.996021 511.009857,53.213593 516.396057,52.423935 
	C526.492920,50.943676 536.245361,52.244011 544.219849,60.371532 
	C550.558350,66.831635 551.593750,74.661705 551.656921,82.722839 
	C551.692017,87.191002 549.806091,91.674225 548.723511,96.424805 
	C549.779846,97.381836 551.127014,98.602463 552.891174,100.129044 
	C553.477112,100.613213 553.653381,100.783813 553.837036,100.946808 
	C553.558960,102.086731 553.280884,103.226646 552.783936,104.837372 
	C552.386841,105.477112 552.216248,105.653389 552.053284,105.837006 
M524.620483,84.032074 
	C527.278992,80.984398 529.699219,81.814964 532.181519,84.357582 
	C533.947754,86.166656 535.923889,87.115898 536.862122,83.641808 
	C538.563965,77.340439 534.714050,68.324387 529.144836,66.331161 
	C521.865601,63.725964 513.256836,64.647797 509.215240,72.184364 
	C505.495544,79.120628 506.644379,85.182732 510.347931,91.288643 
	C512.590759,94.986382 520.861877,97.415733 525.245239,95.452858 
	C521.089844,92.161255 520.425110,88.470299 524.620483,84.032074 
z"/>
<path fill="#1B355E" opacity="1.000000" stroke="none" 
	d="
M812.306274,71.645477 
	C814.670898,75.319534 816.852234,78.667381 819.033569,82.015228 
	C819.540833,81.883186 820.048096,81.751144 820.555298,81.619095 
	C820.703491,79.100365 820.946167,76.582909 820.980408,74.062630 
	C821.052673,68.736801 821.105774,63.407524 820.989075,58.083553 
	C820.922913,55.064407 822.217163,54.103104 825.147461,53.962708 
	C835.002075,53.490551 834.999634,53.393562 834.999451,63.369442 
	C834.999146,76.519867 834.895691,89.671494 835.054810,102.819954 
	C835.100952,106.629929 833.951660,108.419029 829.943115,108.032295 
	C827.634277,107.809555 825.267456,107.806213 822.959778,108.035812 
	C818.783569,108.451286 816.780151,106.058334 814.872070,102.826218 
	C809.631958,93.949959 804.140198,85.222298 797.471558,76.636955 
	C797.315125,78.296974 797.035889,79.956062 797.023499,81.617157 
	C796.969849,88.774605 796.859070,95.936195 797.047180,103.088966 
	C797.142517,106.717491 795.900513,108.417282 792.177002,108.003738 
	C791.355164,107.912460 790.513916,107.999702 789.681641,107.997711 
	C783.041382,107.981789 783.015259,107.981293 783.006775,101.454979 
	C782.988953,87.805191 782.988647,74.155350 783.007019,60.505562 
	C783.015747,54.034576 783.042725,54.034595 789.723511,54.001194 
	C789.889954,54.000362 790.064026,54.033215 790.221741,53.996048 
	C800.140198,51.658405 805.075134,57.480560 808.840881,65.302811 
	C809.830505,67.358551 811.023438,69.316444 812.306274,71.645477 
z"/>
<path fill="#1B355E" opacity="1.000000" stroke="none" 
	d="
M884.314697,107.996124 
	C880.854614,108.373405 879.130798,107.122932 877.579407,104.394821 
	C873.102600,96.522423 868.242126,88.865860 863.428711,81.189484 
	C862.597900,79.864662 861.260315,78.857597 858.999756,76.493736 
	C858.999756,85.326439 859.115906,92.727516 858.935120,100.121338 
	C858.873962,102.623894 858.588318,106.945038 857.494507,107.258621 
	C854.120605,108.225906 850.295471,107.814911 846.675720,107.541100 
	C846.055054,107.494148 845.118408,105.496048 845.110779,104.393867 
	C845.003479,88.895325 845.058533,73.395729 845.002991,57.896633 
	C844.993225,55.167366 846.080750,53.846233 848.847595,54.024891 
	C849.179077,54.046295 849.530945,54.081795 849.844727,54.000462 
	C863.572998,50.442051 867.678467,60.796795 872.830750,69.780258 
	C875.495789,74.427155 878.460815,78.902046 882.446472,83.369415 
	C882.629517,81.910820 882.957397,80.453545 882.970764,78.993385 
	C883.031738,72.327461 883.140198,65.656921 882.953918,58.995808 
	C882.854370,55.435932 883.922485,53.540829 887.747620,54.005039 
	C888.075806,54.044868 888.413574,54.007584 888.746887,54.003304 
	C896.989319,53.897446 896.995483,53.897373 896.998413,61.987892 
	C897.003174,75.154152 897.011963,88.320419 896.993042,101.486656 
	C896.983765,107.965721 896.957458,107.967659 890.270081,107.997597 
	C888.436829,108.005798 886.603455,107.998283 884.314697,107.996124 
z"/>
<path fill="#1B355E" opacity="1.000000" stroke="none" 
	d="
M665.000000,80.000000 
	C665.002930,72.676697 665.196167,65.846138 664.936768,59.032818 
	C664.782898,54.991497 666.424133,53.927364 670.198364,53.935341 
	C678.992310,53.953922 678.923279,53.801353 679.016602,62.415783 
	C679.148254,74.567261 677.407837,72.947800 689.630493,72.959579 
	C701.475159,72.971001 699.823730,74.466270 699.999390,62.654316 
	C700.004333,62.321545 699.999756,61.988632 700.000366,61.655788 
	C700.013489,54.539234 704.334106,51.554516 711.001465,54.317459 
	C711.970703,54.719124 712.876221,56.592239 712.885925,57.791943 
	C713.011169,73.268021 712.940796,88.745544 712.993652,104.222458 
	C713.003235,107.035744 711.728577,108.114105 709.046143,107.989098 
	C707.219482,107.903961 705.206299,108.431763 703.609253,107.818703 
	C702.181702,107.270714 700.306458,105.611099 700.197388,104.310417 
	C699.781494,99.351257 699.882996,94.335617 700.023132,89.347580 
	C700.114014,86.113319 698.808777,84.861290 695.611755,84.980453 
	C691.457031,85.135315 687.289551,85.113785 683.132690,84.991768 
	C680.162231,84.904572 678.918823,86.103821 678.989380,89.103134 
	C679.102966,93.926308 678.884827,98.757835 679.022461,103.579689 
	C679.112671,106.742050 677.938660,107.935005 674.690979,108.050003 
	C664.999329,108.393196 665.002747,108.516144 665.000244,98.972878 
	C664.998657,92.815254 665.000000,86.657623 665.000000,80.000000 
z"/>
<path fill="#1B355E" opacity="1.000000" stroke="none" 
	d="
M653.991577,59.096382 
	C654.739746,64.459961 652.923279,66.552437 647.713196,66.086998 
	C643.088257,65.673836 638.394226,66.092354 633.733154,66.006462 
	C630.881653,65.953911 629.991150,67.308662 629.996765,69.983177 
	C630.002319,72.625565 630.816772,74.039543 633.699280,73.992928 
	C638.693542,73.912170 643.694031,74.120949 648.685181,73.976753 
	C651.953735,73.882317 652.959778,75.266029 653.046875,78.418457 
	C653.283691,86.994034 653.404541,86.990791 644.852661,86.999741 
	C641.521973,87.003220 638.190796,87.045166 634.860840,86.997078 
	C632.152344,86.957970 630.016968,87.124153 629.956482,90.852531 
	C629.891968,94.827332 632.122253,95.051598 635.068542,95.014397 
	C640.563110,94.945023 646.061890,95.110786 651.553955,94.977104 
	C654.693787,94.900673 656.263062,95.994560 656.000916,99.290321 
	C655.882446,100.779663 655.904480,102.290771 655.995483,103.783905 
	C656.171875,106.676743 655.057129,108.038803 651.980469,108.011421 
	C641.323242,107.916557 630.664185,107.916130 620.007019,108.011078 
	C616.915955,108.038612 615.978394,106.641701 615.990601,103.767799 
	C616.054871,88.613625 616.075195,73.458672 615.975952,58.304867 
	C615.954529,55.029430 617.281555,53.939178 620.434204,53.975796 
	C630.091736,54.087967 639.753113,54.114532 649.409546,53.960854 
	C652.889404,53.905472 654.356323,55.225552 653.991577,59.096382 
z"/>
<path fill="#1B355E" opacity="1.000000" stroke="none" 
	d="
M944.464478,105.606735 
	C942.800781,102.600456 941.720581,97.997948 939.821594,97.630859 
	C934.556335,96.613037 928.822632,96.712265 923.546143,97.751442 
	C921.642517,98.126350 920.575806,102.471237 919.001282,104.923683 
	C918.298157,106.018860 917.341553,107.697754 916.401855,107.766304 
	C912.171814,108.074898 907.906433,107.900932 902.697449,107.900932 
	C904.702393,103.051331 906.276550,99.169968 907.907288,95.312500 
	C913.348022,82.442390 918.802673,69.578163 924.278320,56.722885 
	C924.598450,55.971439 925.004028,55.128956 925.620056,54.652149 
	C928.994080,52.040695 938.467407,54.507004 940.161926,58.473251 
	C946.816833,74.050552 953.415588,89.651855 960.016296,105.252251 
	C960.257019,105.821220 960.300110,106.473801 960.597229,107.821869 
	C954.971680,107.360962 949.571838,109.906616 944.464478,105.606735 
M933.109924,84.830315 
	C937.296814,81.030167 933.276001,78.924156 932.162720,76.218010 
	C931.710022,76.193115 931.257263,76.168228 930.804565,76.143333 
	C929.645447,78.812813 928.486328,81.482292 926.990234,84.927879 
	C929.423462,84.927879 930.874084,84.927879 933.109924,84.830315 
z"/>
<path fill="#1B355E" opacity="1.000000" stroke="none" 
	d="
M728.755554,107.996017 
	C725.509583,107.997887 722.710449,107.997887 719.023926,107.997887 
	C721.781311,101.107597 724.080261,94.984901 726.666260,88.985970 
	C731.023193,78.878799 735.807922,68.948380 739.892090,58.735420 
	C741.331970,55.134838 743.124084,53.553150 746.803101,54.012810 
	C750.386108,54.460472 754.164368,52.548817 756.326599,58.386837 
	C761.063416,71.176498 767.103882,83.484001 772.633423,95.978928 
	C773.896057,98.831963 775.482605,101.572647 776.403625,104.526093 
	C776.664185,105.361656 775.195984,107.661209 774.350647,107.754845 
	C770.896057,108.137489 767.356995,108.129417 763.890747,107.811241 
	C762.832764,107.714142 761.353577,106.335678 761.014282,105.248520 
	C759.064758,99.001106 755.393250,95.681885 748.527710,96.983849 
	C747.884644,97.105789 747.183289,97.092262 746.534668,96.985588 
	C741.082275,96.088821 737.396240,97.804596 735.926880,103.542603 
	C735.087646,106.819778 732.749146,108.481194 728.755554,107.996017 
M750.049011,79.428482 
	C749.475342,78.044418 748.901733,76.660347 748.328125,75.276283 
	C747.826904,75.268539 747.325623,75.260803 746.824402,75.253067 
	C745.799377,78.259972 744.774353,81.266884 743.613525,84.672020 
	C746.572266,84.672020 748.622070,84.672020 751.230713,84.672020 
	C750.811951,82.879333 750.492065,81.510010 750.049011,79.428482 
z"/>
<path fill="#1B355E" opacity="1.000000" stroke="none" 
	d="
M420.682068,108.992386 
	C415.301971,108.536270 410.131348,108.878883 405.509308,107.448631 
	C396.190002,104.564865 393.635559,96.374840 393.152802,87.831100 
	C392.599518,78.039528 393.095001,68.192001 392.975586,58.370728 
	C392.936554,55.161350 394.159241,54.058372 397.361145,53.951405 
	C407.000366,53.629372 406.996643,53.511646 406.999878,63.085926 
	C407.002441,70.577881 406.963379,78.070137 407.019806,85.561691 
	C407.063507,91.366829 411.883301,97.037773 416.558899,96.926590 
	C421.164886,96.817062 425.840027,91.443336 425.940887,85.696716 
	C426.095734,76.875450 426.292328,68.036598 425.899231,59.230743 
	C425.654327,53.744801 428.752838,53.953953 432.502441,53.951702 
	C436.258179,53.949444 439.310059,53.757736 439.103149,59.235062 
	C438.720093,69.376282 438.341705,79.597816 439.193939,89.681725 
	C439.958801,98.731941 429.635681,109.505745 420.682068,108.992386 
z"/>
<path fill="#1B355E" opacity="1.000000" stroke="none" 
	d="
M576.417725,92.414276 
	C579.438843,94.966827 581.994080,98.269455 586.176758,96.257904 
	C590.836792,94.016792 593.751892,90.125328 593.908142,84.902496 
	C594.167114,76.245331 594.239380,67.566437 593.919556,58.914104 
	C593.725830,53.672337 596.836182,53.857510 600.326538,54.002586 
	C603.498047,54.134415 607.280884,52.993046 607.038818,58.566200 
	C606.555969,69.684715 606.325623,80.815392 606.093079,91.943176 
	C605.919067,100.269867 601.058655,105.498985 593.870972,107.654518 
	C585.760559,110.086784 577.245850,110.695274 569.390381,105.698944 
	C563.888794,102.199783 561.206665,97.133881 561.083618,90.860184 
	C560.871338,80.033592 561.090210,69.199173 560.975342,58.369663 
	C560.941223,55.154911 562.161987,54.044968 565.366943,53.951313 
	C573.993958,53.699234 573.993103,53.571743 573.999084,62.104774 
	C574.004089,69.269760 573.799072,76.443321 574.101990,83.595512 
	C574.223328,86.459351 575.455811,89.276131 576.417725,92.414276 
z"/>
<path fill="#1B355E" opacity="1.000000" stroke="none" 
	d="
M466.627808,87.279694 
	C462.469513,85.564926 458.608734,84.112984 454.838684,82.454857 
	C447.338715,79.156219 447.487396,72.554726 448.063019,65.955162 
	C448.580475,60.022205 452.645966,56.411850 457.510498,54.134945 
	C465.855194,50.229099 474.358002,51.616894 482.577850,54.940971 
	C485.706329,56.206116 487.169434,58.334686 484.138306,61.384007 
	C483.213196,62.314655 482.604767,63.561600 481.673645,64.484436 
	C479.548676,66.590424 477.705078,68.168007 474.021454,66.434021 
	C471.385468,65.193176 467.564148,65.520195 464.559174,66.281883 
	C461.579956,67.037033 461.380981,70.312469 463.997101,71.849739 
	C466.247437,73.172058 468.737030,74.435989 471.267853,74.871735 
	C482.108521,76.738243 486.836365,83.302391 485.975128,95.843460 
	C485.503876,102.706398 477.220703,109.260773 468.526398,108.885338 
	C462.671692,108.632523 456.684296,107.924179 451.085144,106.291664 
	C445.679962,104.715721 445.325226,101.879112 448.901855,97.674011 
	C449.547455,96.914986 450.419495,96.313675 450.932190,95.482399 
	C453.351776,91.559547 456.049194,91.778435 459.586090,94.231316 
	C465.540436,98.360680 467.659729,97.902786 473.295044,91.549606 
	C471.103577,90.129761 469.035004,88.789520 466.627808,87.279694 
z"/>
<path fill="#1B355E" opacity="1.000000" stroke="none" 
	d="
M384.935791,56.150459 
	C387.886383,61.966316 382.009064,63.214432 379.863373,66.241951 
	C379.289612,67.051537 376.269348,66.053482 374.369568,66.013870 
	C371.322968,65.950333 368.047180,65.289833 365.286591,66.179565 
	C362.184875,67.179253 362.061584,70.026123 364.951752,71.803177 
	C367.300568,73.247391 370.007141,74.359802 372.701599,74.947609 
	C383.150055,77.226944 387.279175,83.800606 385.950806,96.567635 
	C385.293854,102.881310 377.344940,108.923553 369.432373,108.974838 
	C363.004669,109.016502 356.496765,109.815315 350.615479,105.890045 
	C346.569824,103.189903 346.076202,100.466248 349.661652,97.187035 
	C350.267059,96.633324 351.169891,96.287323 351.550537,95.624413 
	C354.009247,91.342583 356.585846,91.176277 360.237946,94.550400 
	C363.801239,97.842468 367.797363,97.498413 370.941071,94.546463 
	C373.499878,92.143723 372.996002,90.078438 370.125397,88.730293 
	C366.387695,86.974976 362.535248,85.395149 358.605652,84.134132 
	C353.266418,82.420761 349.568634,78.902420 348.282104,73.718018 
	C346.719604,67.421501 348.379730,61.481258 353.478516,57.131710 
	C362.244263,49.653996 376.569702,50.913536 384.935791,56.150459 
z"/>
<path fill="#005DB9" opacity="1.000000" stroke="none" 
	d="
M317.843475,79.742767 
	C317.643066,79.814720 317.460388,79.636681 317.157104,79.308746 
	C317.400238,79.039833 317.675140,79.151138 317.843475,79.742767 
z"/>
<path fill="#1B355E" opacity="1.000000" stroke="none" 
	d="
M553.785156,100.751839 
	C553.653381,100.783813 553.477112,100.613213 553.184631,100.298920 
	C553.355652,100.173973 553.579712,100.305313 553.785156,100.751839 
z"/>
<path fill="#1B355E" opacity="1.000000" stroke="none" 
	d="
M552.248230,105.785187 
	C552.216248,105.653389 552.386841,105.477112 552.701050,105.184715 
	C552.826050,105.355774 552.694763,105.579811 552.248230,105.785187 
z"/>
<path fill="#005DB9" opacity="1.000000" stroke="none" 
	d="
M317.257233,108.843475 
	C317.185272,108.643036 317.363312,108.460358 317.691254,108.157120 
	C317.960205,108.400261 317.848877,108.675148 317.257233,108.843475 
z"/>
<path fill="#000000" opacity="1.000000" stroke="none" 
	d="
M54.440681,85.116966 
	C55.091824,84.485306 56.122543,83.513123 57.031219,83.616257 
	C62.876942,84.279678 68.675056,85.401131 74.528389,85.950264 
	C84.475937,86.883522 93.462151,82.855629 102.707245,80.114883 
	C110.197800,77.894295 117.740067,74.816971 125.377304,74.426643 
	C132.328964,74.071350 139.707626,76.047897 146.419708,78.375801 
	C157.775238,82.314178 168.970779,86.068275 181.216583,86.097511 
	C190.970123,86.120789 199.860138,83.199997 208.890656,80.130127 
	C216.119019,77.672882 223.559494,75.027702 231.060181,74.441765 
	C237.006775,73.977242 243.289658,76.140182 249.238876,77.797997 
	C257.231964,80.025368 264.885834,83.764038 272.979950,85.261467 
	C283.364471,87.182632 293.916016,86.753052 303.818970,81.850433 
	C305.426605,81.054558 307.615143,81.431976 309.707489,81.614807 
	C302.181122,87.404465 293.381195,90.236732 284.202759,90.743980 
	C278.635590,91.051659 272.832062,89.477097 267.337433,87.996017 
	C262.345825,86.650520 257.756348,83.812691 252.764511,82.468552 
	C240.981476,79.295746 229.082962,76.732697 216.906967,80.918892 
	C208.336594,83.865456 199.752838,86.793816 191.080460,89.417648 
	C180.874786,92.505363 170.983917,90.182945 161.194077,87.063797 
	C148.258850,82.942497 135.612732,76.975754 121.519249,79.100121 
	C115.152679,80.059784 108.918282,81.984756 102.677811,83.671211 
	C94.019653,86.011047 85.542351,89.424171 76.743599,90.717072 
	C69.146271,91.833435 61.613300,89.067665 54.440681,85.116966 
z"/>
<path fill="#000000" opacity="1.000000" stroke="none" 
	d="
M524.403198,84.329086 
	C520.425110,88.470299 521.089844,92.161255 525.245239,95.452858 
	C520.861877,97.415733 512.590759,94.986382 510.347931,91.288643 
	C506.644379,85.182732 505.495544,79.120628 509.215240,72.184364 
	C513.256836,64.647797 521.865601,63.725964 529.144836,66.331161 
	C534.714050,68.324387 538.563965,77.340439 536.862122,83.641808 
	C535.923889,87.115898 533.947754,86.166656 532.181519,84.357582 
	C529.699219,81.814964 527.278992,80.984398 524.403198,84.329086 
z"/>
<path fill="#000000" opacity="1.000000" stroke="none" 
	d="
M932.717285,84.879097 
	C930.874084,84.927879 929.423462,84.927879 926.990234,84.927879 
	C928.486328,81.482292 929.645447,78.812813 930.804565,76.143333 
	C931.257263,76.168228 931.710022,76.193115 932.162720,76.218010 
	C933.276001,78.924156 937.296814,81.030167 932.717285,84.879097 
z"/>
<path fill="#000000" opacity="1.000000" stroke="none" 
	d="
M750.110596,79.784584 
	C750.492065,81.510010 750.811951,82.879333 751.230713,84.672020 
	C748.622070,84.672020 746.572266,84.672020 743.613525,84.672020 
	C744.774353,81.266884 745.799377,78.259972 746.824402,75.253067 
	C747.325623,75.260803 747.826904,75.268539 748.328125,75.276283 
	C748.901733,76.660347 749.475342,78.044418 750.110596,79.784584 
z"/>
</svg>