<?xml version="1.0" encoding="UTF-8"?> <svg xmlns="http://www.w3.org/2000/svg" viewBox="0 0 477.05 185"><defs><style>.cls-1{fill:#f30;}.cls-2{fill:none;}</style></defs><g id="Logo"><path d="M91.4,61.68a31.17,31.17,0,1,0,22.28,9.15A31.08,31.08,0,0,0,91.4,61.68Zm0,54.69a23,23,0,0,1-16.48-6.73,24.06,24.06,0,0,1,0-33.21,23.52,23.52,0,0,1,33,0,24.06,24.06,0,0,1,0,33.21A23,23,0,0,1,91.4,116.37Z"></path><path d="M152.9,78.91c-6.89,0-12.47,2.84-16.15,8.23V80H129v60.54h7.75V116.23c3.68,5.39,9.26,8.23,16.15,8.23a21.43,21.43,0,0,0,15.47-6.58,23.58,23.58,0,0,0,0-32.39A21.43,21.43,0,0,0,152.9,78.91Zm-1,7.49a15.29,15.29,0,1,1-15.2,15.28A14.87,14.87,0,0,1,152,86.4Z"></path><path d="M193.07,67.93l-7.75,2.31V80H176.8v7.49h8.52v23.21c0,4.75,1.17,8.09,3.59,10.2,2.17,1.91,5.32,2.84,9.73,2.84a44.64,44.64,0,0,0,5.77-.43h.11v-7l-1,0c-4.53.21-7.53.35-9.12-1.17-.92-.88-1.35-2.31-1.35-4.51V87.52h11.45V80H193.07Z"></path><rect x="213.14" y="80.03" width="7.75" height="43.32"></rect><path d="M217.06,62.11a5.17,5.17,0,1,0,0,10.33,5.12,5.12,0,0,0,5.12-5.12A5.18,5.18,0,0,0,217.06,62.11Z"></path><polygon points="248.83 114.85 235.4 80.03 227.03 80.03 244.32 123.26 244.35 123.34 253.31 123.34 270.57 80.2 270.64 80.03 262.27 80.03 248.83 114.85"></polygon><path d="M294.16,78.91c-13.15,0-22.69,9.58-22.69,22.77a22.7,22.7,0,0,0,6.38,16.26c4.25,4.27,10.07,6.52,16.83,6.52,8.2,0,15-3.48,19.05-9.79l.07-.11-6.49-3.68-.1-.07-.07.11c-2.38,3.9-7,6.22-12.29,6.22-8.08,0-14-4.55-15.44-11.88h36l0-.11a22.63,22.63,0,0,0,.26-3.38,23.82,23.82,0,0,0-5.88-16A20.7,20.7,0,0,0,294.16,78.91Zm0,7.31c5.7,0,12.29,3.22,13.72,12.24H279.41C280.69,90.91,286.33,86.22,294.16,86.22Z"></path><path d="M344.05,79.25c-6.24,0-10.83,2.62-13.31,7.58V80H323v43.31h7.75v-23c0-4.22,1.2-7.52,3.57-9.8A13.1,13.1,0,0,1,344,87.34h.14v-8.1Z"></path><path class="cls-1" d="M415.2,120.65,388,62.76a1.88,1.88,0,0,0-1.7-1.08h-5.05a1.88,1.88,0,0,0-1.75,1.17L356,120.75a1.88,1.88,0,0,0,1.75,2.59H413.5A1.88,1.88,0,0,0,415.2,120.65Zm-33.31-33.5,11.56,24.67a1.88,1.88,0,0,1-1.7,2.68H370.2a1.88,1.88,0,0,1-1.75-2.59l10-24.66A1.89,1.89,0,0,1,381.89,87.15Z"></path></g><g id="Clearance_area" data-name="Clearance area"><rect class="cls-2" width="477.05" height="185"></rect></g></svg> 