<?xml version="1.0" standalone="no"?>
<!DOCTYPE svg PUBLIC "-//W3C//DTD SVG 20010904//EN"
 "http://www.w3.org/TR/2001/REC-SVG-20010904/DTD/svg10.dtd">
<svg version="1.0" xmlns="http://www.w3.org/2000/svg"
 width="1024.000000pt" height="161.000000pt" viewBox="0 0 1024.000000 161.000000"
 preserveAspectRatio="xMidYMid meet">

<g transform="translate(0.000000,161.000000) scale(0.100000,-0.100000)"
fill="#000000" stroke="none">
<path d="M1135 1176 c-33 -8 -112 -34 -175 -57 -108 -40 -122 -43 -220 -43
-115 -1 -153 11 -244 73 -25 17 -47 31 -50 31 -3 0 -6 -18 -6 -40 0 -39 3 -42
62 -80 79 -52 142 -70 242 -70 71 0 98 6 231 53 l150 52 130 0 c130 0 130 0
275 -50 144 -50 146 -50 270 -50 l125 1 125 48 c117 46 132 50 236 54 l110 4
166 -56 c149 -51 173 -56 250 -56 101 0 166 18 270 74 76 40 78 42 78 79 0 20
-4 37 -9 37 -6 0 -49 -20 -98 -45 -165 -84 -266 -85 -498 -4 -143 50 -155 53
-250 53 -105 0 -116 -3 -305 -75 -78 -30 -94 -33 -200 -33 -111 0 -120 2 -275
53 -183 59 -285 71 -390 47z"/>
<path d="M3595 1076 c-124 -46 -150 -217 -42 -273 17 -8 55 -24 85 -34 90 -31
114 -66 71 -105 -30 -27 -90 -24 -130 5 l-33 24 -38 -43 c-32 -36 -36 -45 -26
-58 42 -50 186 -69 263 -33 80 36 120 119 95 195 -16 48 -57 80 -137 106 -62
20 -103 48 -103 71 0 5 9 18 20 29 24 24 96 27 126 6 17 -13 22 -11 57 22 20
20 37 41 37 48 0 39 -171 67 -245 40z"/>
<path d="M4595 1078 c-67 -24 -115 -91 -115 -162 0 -68 39 -107 141 -141 88
-30 119 -58 100 -93 -23 -43 -98 -49 -152 -11 l-26 18 -38 -39 c-21 -22 -35
-45 -32 -53 10 -26 80 -51 154 -55 124 -7 201 48 211 149 9 92 -23 130 -141
168 -72 24 -97 42 -97 70 0 46 80 67 139 37 27 -14 29 -14 65 29 l36 44 -24
16 c-52 34 -157 45 -221 23z"/>
<path d="M5120 1081 c-80 -26 -157 -100 -178 -169 -15 -50 -15 -149 0 -193 38
-112 137 -179 264 -179 49 0 91 7 126 20 l52 20 39 -27 39 -27 29 34 29 35
-33 30 -34 30 18 40 c23 50 25 180 5 230 -24 58 -63 100 -118 130 -43 24 -67
29 -133 32 -44 1 -91 -1 -105 -6z m177 -121 c39 -23 62 -57 74 -107 7 -35 -1
-107 -15 -120 -3 -3 -23 9 -44 26 -22 17 -42 31 -45 31 -2 0 -17 -16 -32 -36
l-27 -36 33 -28 c19 -15 31 -32 26 -36 -15 -16 -103 -8 -137 12 -54 31 -74 66
-78 137 -4 73 16 119 68 155 43 29 131 31 177 2z"/>
<path d="M3934 1065 c-3 -8 -4 -97 -2 -197 4 -210 15 -246 89 -295 81 -53 230
-41 295 24 52 52 64 109 64 310 l0 173 -60 0 -60 0 0 -175 c0 -200 -7 -226
-67 -251 -43 -19 -93 -5 -123 33 -18 24 -20 40 -20 209 l0 184 -55 0 c-40 0
-57 -4 -61 -15z"/>
<path d="M5612 872 c3 -203 4 -209 28 -245 74 -109 286 -118 362 -16 42 57 48
91 48 286 l0 184 -57 -3 -58 -3 -5 -187 c-5 -178 -6 -188 -28 -211 -30 -32
-74 -41 -118 -22 -56 23 -64 57 -64 255 l0 170 -56 0 -55 0 3 -208z"/>
<path d="M6170 815 l0 -265 186 0 185 0 -3 53 -3 52 -128 3 -128 3 3 52 3 52
113 3 112 3 0 49 0 50 -115 0 -115 0 0 50 0 50 120 0 120 0 0 55 0 55 -175 0
-175 0 0 -265z"/>
<path d="M6650 815 l0 -265 60 0 60 0 0 115 0 115 110 0 109 0 3 -112 3 -113
58 -3 57 -3 0 266 0 266 -57 -3 -58 -3 -3 -97 -3 -98 -109 0 -110 0 0 100 0
100 -60 0 -60 0 0 -265z"/>
<path d="M7318 833 c-59 -136 -110 -256 -114 -265 -5 -16 1 -18 55 -18 l61 0
25 55 24 55 101 0 101 0 24 -55 25 -55 64 0 64 0 -113 263 -114 262 -48 3 -49
3 -106 -248z m179 20 c12 -32 25 -66 29 -75 5 -16 -1 -18 -55 -18 -34 0 -61 4
-61 10 0 16 52 140 59 140 3 0 16 -26 28 -57z"/>
<path d="M7837 1074 c-4 -4 -7 -124 -7 -266 l0 -258 60 0 60 0 0 182 c0 155 2
180 14 168 7 -8 59 -90 115 -182 l103 -168 74 0 74 0 0 265 0 265 -55 0 -55 0
0 -182 c0 -125 -3 -179 -10 -172 -6 6 -57 87 -114 180 l-103 169 -74 3 c-41 1
-78 0 -82 -4z"/>
<path d="M8450 815 l0 -265 55 0 55 0 0 180 c0 99 4 180 9 180 4 0 57 -81 117
-180 l109 -180 78 0 77 0 0 265 0 266 -57 -3 -58 -3 -5 -178 -5 -177 -110 180
-110 180 -77 0 -78 0 0 -265z"/>
<path d="M9151 823 c-61 -142 -111 -262 -111 -266 0 -4 28 -7 62 -5 l63 3 19
53 19 53 105 -3 104 -3 22 -52 21 -53 63 0 c34 0 62 3 62 7 0 4 -50 123 -112
265 l-112 258 -46 0 -47 0 -112 -257z m187 22 c11 -27 23 -58 27 -67 6 -16 0
-18 -54 -18 -68 0 -71 4 -45 66 9 22 21 50 26 63 11 30 21 21 46 -44z"/>
<path d="M442 954 l3 -77 69 -43 c125 -78 265 -85 436 -21 253 94 333 96 585
10 138 -47 142 -48 265 -47 124 0 126 1 246 47 224 86 302 84 554 -10 72 -27
116 -37 180 -40 111 -7 174 7 288 65 l92 46 0 74 c0 41 -4 72 -8 70 -5 -1 -51
-24 -103 -51 -161 -81 -267 -83 -476 -8 -152 55 -202 64 -302 59 -70 -5 -109
-14 -210 -52 -215 -81 -295 -81 -543 1 -138 45 -147 47 -263 47 -118 1 -122 0
-256 -47 -167 -59 -230 -70 -321 -57 -71 10 -122 32 -196 82 l-43 30 3 -78z"/>
<path d="M1135 805 c-33 -7 -100 -29 -150 -48 -130 -49 -186 -60 -275 -54 -83
5 -141 26 -214 76 -25 17 -47 31 -50 31 -3 0 -6 -60 -6 -134 l0 -134 57 -38
c83 -55 143 -73 243 -74 76 0 100 5 227 49 248 86 321 86 568 3 138 -46 142
-47 265 -47 125 1 125 1 249 48 213 82 288 81 531 -3 130 -45 154 -50 230 -50
107 0 143 10 258 68 l92 47 0 132 c0 92 -3 133 -11 133 -6 0 -44 -18 -83 -40
-86 -47 -168 -70 -251 -70 -72 0 -133 15 -283 68 -195 70 -276 67 -494 -14
-193 -72 -289 -72 -503 3 -178 61 -283 74 -400 48z"/>
</g>
</svg>
