<?xml version="1.0" encoding="UTF-8"?><svg id="Layer_2" xmlns="http://www.w3.org/2000/svg" viewBox="0 0 642.62 180"><defs><style>.cls-1{fill:#000;stroke-width:0px;}</style></defs><g id="Layer_1-2"><path class="cls-1" d="M78.56,109.34l-25.58,6.32c-2.59,12.43-23.69,48.25-32.12,58.66l-3.01,4.07s-2.86,4.29,7.02-1.14c7.3-3.9,46.61-30.41,58.46-68.91,0,0,12.25-2.24,17.99-12.4,0,0-3.56-6-15.16-7.68,0,0,1.49-16.44-3.98-26.95C80.06,57.23,50.51,15.16,20.97.07c-.55-.28-1.13.32-.82.86,3.9,6.8,18.12,31.9,27.71,52.65,0,0,11.03,21.2,8.41,32.03C52.06,103.01,9.47,103.49.23,103.39c-.26,0-.31.37-.06.44l21.22,5.96s-13.92,8.97-18.2,11.76c-.22.14-.06.48.19.4l29.69-8.61s27.17-.52,45.48-4.01Z"/><polygon class="cls-1" points="298.17 142.61 277.04 79.51 255.91 142.61 235.61 142.61 205.72 53.42 222.46 53.42 245.8 123.88 269.02 53.42 285.05 53.42 308.36 123.84 332.25 55.28 340.24 77.63 318.48 142.61 298.17 142.61"/><path class="cls-1" d="M146.28,142.61v-14.45l21.71.03c6.85,0,15.26-.33,19.55-2.86,2.37-1.4,3.94-3.88,4.28-6.82.37-3.08-.67-6.05-2.84-8.15-1.46-1.42-4.84-2.75-10.04-3.96l-13.95-3.27c-7.91-1.88-13.84-4.88-17.61-8.91-3.83-4.08-5.77-9.28-5.77-15.45,0-5.03,1.44-9.54,4.29-13.41,8.34-11.33,22.42-11.62,34.83-11.89l13.61-.05,4.84,14.44c-4.58-.01-19.86-.06-21.28-.06-6.47,0-14.27.26-17.21,2.26-3.03,2.06-4.44,4.5-4.44,7.67,0,6.74,6.28,8.95,14.48,11.14l12.41,3.05c7.71,1.88,13.58,4.81,17.43,8.7,5.26,5.35,5.84,12.12,5.82,16.74-.09,4.85-1.53,9.2-4.27,12.94-3.07,4.17-7.06,7.37-11.56,9.27-6.74,2.84-14.19,3.08-20.64,3.08-1.08,0-19.65-.03-23.63-.04Z"/><path class="cls-1" d="M343.28,180v-14.98h18.11c4.52,0,8.71-1.15,14.16-15.39.28-.73.57-1.49.86-2.27l.1-.26-33.47-93.68h15.92l25.38,71.03,23.32-71.03h15.67l-25.03,76.57c-.5,1.53-4.86,14.87-8.73,24.99-7.95,20.77-17.54,25.02-29.5,25.02h-16.77Z"/><path class="cls-1" d="M447.94,142.65v-75.55h-17.77l4.46-13.65h13.31v-5.44c0-10.84,2.8-19.24,8.33-24.95,5.54-5.69,13.56-8.58,23.83-8.58,2.27,0,9.44.64,11.69.84v13.35c-2.33-.04-9.07-.15-10.03-.15-5.95.12-13.14,2.97-15.58,8.19-1.24,2.64-1.94,6.62-2.06,11.84v4.91h21.51v13.65h-21.51v75.55h-16.19Z"/><path class="cls-1" d="M541.42,142.6c-9.74,0-17.45-2.93-22.94-8.72-7.75-8.17-7.78-18.79-7.7-20.83v-45.97h-14.36v-13.66h14.37v-24.13s15.84,0,15.84,0v24.13s24.82,0,24.82,0l9.31,13.65h-34.12v46.4c0,.22-.11,5.92,3.42,9.57,2.39,2.46,6.21,3.7,11.37,3.7h18.24l-10.83,15.86h-7.41Z"/><polygon class="cls-1" points="625.61 142.6 602.26 108.44 578.9 142.6 562.03 142.6 593.76 96.16 564.61 53.42 581.66 53.42 642.62 142.6 625.61 142.6"/><polygon class="cls-1" points="617.5 86.77 640.94 53.41 624.07 53.41 609.12 74.51 617.5 86.77"/></g></svg>
