<svg version="1.2" xmlns="http://www.w3.org/2000/svg" viewBox="0 0 652 220" width="652" height="220">
	<style>
		.s0 { fill: #3fafd7 } 
	</style>
	<path class="s0" d="m129.3 115.5h-30.8c0 0-3.8 1.2-4.1 5.1l-7.5 89.4c0 0 0.1 6.2-4.2 6.2h-21.3c0 0-4.3 0.1-3.5-5.8l7.8-89c0 0 0.7-5.8-4.4-5.8h-30.2c0 0-4.7 0.4-4.2-5.8l1.1-11.8c0 0-0.1-5 5.7-5h96.7c0 0 5 0.3 5.3 2.5l-1 15.8c0.1-0.1-0.5 4-5.4 4.2zm105.7 93.2c0 0 2.6 7-3.3 7.7h-19.7c0 0-4.8 0.1-6.2-5.4l-5.9-19.6c0 0-1.4-2.6-5.6-2.7h-40c0 0-4.8-0.1-6.6 4l-9.2 19.8c0 0-1.6 3.8-7.2 3.9h-18.2c0 0-4.3-0.3-3.5-3.8l56.1-115c0 0 1.5-3.9 5.2-4.2h5 17.4c0 0 3.6 0 5 3.5zm-43.4-46l-9.8-32.3c-1-3.1-2.4-2.7-2.4-2.7-2.1 0-2.7 1.8-2.7 1.8l-16 34.5c-1.5 4.1 2.8 4.9 2.8 4.9h24.3c5.7-0.3 3.8-6.2 3.8-6.2zm431.3 53.7h-19.8c0 0-4.7 0.1-6.1-5.4l-5.9-19.6c0 0-1.4-2.6-5.6-2.7h-40c0 0-4.8-0.1-6.6 4l-9.2 19.8c0 0-1.6 3.8-7.2 3.9h-18.2c0 0-4.3-0.3-3.5-3.8l56.1-115c0 0 1.5-3.9 5.2-4.2h5 17.4c0 0 3.6 0 5 3.5l36.6 111.7c0.2 0.1 2.8 7.1-3.2 7.8zm-40-53.7l-9.8-32.3c-1-3.1-2.4-2.7-2.4-2.7-2.1 0-2.8 1.8-2.8 1.8l-15.9 34.5c-1.5 4.1 2.8 4.9 2.8 4.9h24.2c5.8-0.3 3.9-6.2 3.9-6.2zm-331.3 49.2c0 4.1 3.8 4.4 3.8 4.4h18.5c3.8 0 4.5-3.7 4.5-3.7l4.8-60.4-24.3-40.1zm115.7-128.9h-17.2c-5.4 0-5.4 5.4-5.4 5.4l-5.1 77.6c-0.1 2.3-0.7 3.6-1.2 4.3-0.4 0.6-1.3 0.7-1.6 0.7-1.7-0.6-3.1-2.8-3.1-2.8l-41.8-69.3c-2.9-5.8-6.3-5.4-6.3-5.4h-20.9c-2.5-0.1-3.4 1.7-3.4 1.7l70.5 116.8c1.1 2.3 3.4 3.5 4.7 4.1 0.6 0.3 1.7 0.4 1.7 0.4h19.9c5.2-0.4 5.4-4.1 5.4-4.1l8-125.5c-0.1-3.7-4.2-3.9-4.2-3.9zm129.5 102.9c0 0-14.8 32.4-55.6 30.6h-49.6-2.8c0 0-5 0.3-4.5-6.4l7.3-112c0 0 0.1-4.5 5.3-4.5h53.3c0 0 29.3-0.8 44.3 19.1 1.2 1.6 4.3 6.8 5.5 9.4 4 8.9 11.4 32.6-3.2 63.8zm-20.7-41.4c-0.2-1.9-0.8-5.4-1.1-6.6-6.1-22.3-30.1-22-30.1-22h-19.1c-6.9 0.5-6.5 4-6.5 4l-4.2 67.7c-0.8 6.3 5.1 6.3 5.1 6.3h22.6c2 0 8-1 8-1 26.6-7 26.1-38.6 25.3-48.4z"/>
</svg>