<?xml version="1.0" encoding="UTF-8"?>
<svg id="Final" xmlns="http://www.w3.org/2000/svg" viewBox="0 0 708.661417322834495 175.74803149606214">
  <defs>
    <style>
      .cls-1 {
        fill: #090e12;
      }

      .cls-2 {
        fill: #ffc226;
      }
    </style>
  </defs>
  <g>
    <path class="cls-1" d="M658.440977505900264,76.221476516013354v-17.682396100560254c10.998863283908577,0,19.947176708883489-8.948119023205436,19.947176708883489-19.946982307111284h17.682007297020391c0,20.7488896040486-16.880294401853462,37.629378407671538-37.62918400590388,37.629378407671538Z"/>
    <rect class="cls-2" x="678.388154214783754" y="76.263856101646525" width="17.682007297020391" height="45.047361107438519"/>
  </g>
  <polygon class="cls-1" points="633.404751289327578 58.502775885100164 615.42725330349549 98.063292865125732 599.585841954932221 58.502775885100164 584.575303766881007 58.502775885100164 607.448032696757764 115.622243842401986 592.98084745293545 147.457963530810048 608.286681928027065 147.457963530810048 648.710780166192308 58.502775885100164 633.404751289327578 58.502775885100164"/>
  <path class="cls-1" d="M559.911940143166248,58.506420918267395v4.053714286682407c-5.103629640363579-3.483047893915682-11.266360117990189-5.523780463516232-17.897793260566687-5.523780463516232-17.552146915360936,0-31.832123255682745,14.279976340321809-31.832123255682745,31.832317657454041,0,17.552341317130413,14.279976340321809,31.832317657448584,31.832123255682745,31.832317657448584,6.631433142576498,0,12.794163620203108-2.040732569597822,17.897793260566687-5.523780463514413v2.665685656345886c0,9.372692486602318-7.625214985471757,16.997907472074075-16.998101873841733,16.997907472074075-7.36471661507494,0-14.404782275991238-2.746313790019485-19.823537183827284-7.733107967240358l-9.436261865052074,10.253915705274267c7.998466381861363,7.360439776153726,18.390018539554148,11.413911060622922,29.259799048879358,11.413911060622922,17.056422404526529,0,30.932820672498565-13.876398267970217,30.932820672498565-30.932626270730907v-59.336474330900273h-13.934718798656831ZM542.014146882599562,106.766271257679364c-9.868611399202564,0-17.897404457025914-8.028793057819712-17.897404457025914-17.897598858791753,0-9.868805800975679,8.02879305782335-17.897598858795391,17.897404457025914-17.897598858795391,9.869000202743337,0,17.897793260566687,8.028793057819712,17.897793260566687,17.897598858795391,0,9.868805800972041-8.02879305782335,17.897598858791753-17.897793260566687,17.897598858791753Z"/>
  <rect class="cls-1" x="411.189143643455282" y="26.972509976162655" width="13.934718798656831" height="94.338707232922388"/>
  <path class="cls-1" d="M366.51211790587422,123.028951239567505c-18.194061556447195,0-32.996201048179501-14.802139491732305-32.996201048179501-32.996395449950796,0-18.194255958219401,14.802139491732305-32.996201048183138,32.996201048179501-32.996201048183138,18.194061556450833,0,32.996201048183138,14.801945089963738,32.996201048183138,32.996201048183138,0,18.194255958218491-14.802139491732305,32.996395449950796-32.996201048183138,32.996395449950796ZM366.51211790587422,70.97107354009222c-10.510526040290642,0-19.061482249522669,8.550956209232027-19.061482249522669,19.061482249524488,0,10.510720442061938,8.550956209232027,19.061676651293965,19.061482249522669,19.061676651293965,10.51052604029428,0,19.061482249526307-8.550956209232027,19.061482249526307-19.061676651293965,0-10.510526040292461-8.550956209232027-19.061482249524488-19.061482249526307-19.061482249524488Z"/>
  <path class="cls-1" d="M470.048167229805586,57.03635474143357c-18.194061556450833,0-32.996201048183138,14.801945089963738-32.996201048183138,32.996201048183138,0,18.194255958218491,14.802139491732305,32.996395449950796,32.996201048183138,32.996395449950796,18.194061556447195,0,32.996201048179501-14.802139491732305,32.996201048179501-32.996395449950796,0-18.194255958219401-14.802139491732305-32.996201048183138-32.996201048179501-32.996201048183138ZM470.048167229805586,109.094232440910673c-10.51052604029428,0-19.061482249526307-8.550956209232027-19.061482249526307-19.061676651293965,0-10.510526040292461,8.550956209232027-19.061482249524488,19.061482249526307-19.061482249524488,10.510526040290642,0,19.061482249522669,8.550956209232027,19.061482249522669,19.061482249524488,0,10.510720442061938-8.550956209232027,19.061676651293965-19.061482249522669,19.061676651293965Z"/>
  <path class="cls-1" d="M296.011149983921314,57.58301251573539c-6.122683713220795,0-11.825848409039281,1.817535038619098-16.611242353623311,4.931729876162535v-4.139737069442162h-13.934718798656831v62.93621188662928h13.934718798656831v-33.181854737531467c0-9.159628147828698,7.45180860756227-16.611631157161355,16.611631157160446-16.611631157161355,7.137266545394596,0,12.943658580526971,5.806586436900943,12.943658580526971,12.944047384065925v36.849438510626896h13.934718798656831v-36.849438510626896c0-14.820996463320625-12.057575317632654-26.878766182722757-26.878766182720938-26.878766182722757Z"/>
  <path class="cls-1" d="M226.91181881612647,57.58301251573539c-6.122878114991181,0-11.826042810807849,1.817559338838691-16.611631157160446,4.931778476606269V26.972509976162655h-13.934718798657741v94.338707232922388h13.934718798657741v-33.181854737531467c0-9.159628147828698,7.45180860756318-16.611631157161355,16.611631157160446-16.611631157161355,7.137266545394596,0,12.944047384064106,5.806586436900943,12.944047384064106,12.944047384065925v36.849438510626896h13.93471879865865v-36.849438510626896c0-14.820996463320625-12.057575317634473-26.878766182722757-26.878766182722757-26.878766182722757Z"/>
  <path class="cls-1" d="M161.017006407778354,123.028951239567505c-18.194061556450833,0-32.996201048182229-14.801945089962828-32.996201048182229-32.996201048181319s14.802139491731396-32.996395449952615,32.996201048182229-32.996395449952615c9.395826297107305,0,18.374855201576793,4.02819905450724,24.634980965449358,11.051740565064392l-10.40204985321725,9.271797968513965c-3.618983330856281-4.060080944615038-8.806788937175043-6.388819734919707-14.232931112232109-6.388819734919707-10.510526040293371,0-19.061482249525397,8.550956209232027-19.061482249525397,19.061676651293965,0,10.510526040292461,8.550956209232027,19.061482249524488,19.061482249525397,19.061482249524488,5.426142175057066,0,10.613558977838693-2.328738790307398,14.232931112232109-6.389014136688274l10.40204985321725,9.27218677205019c-6.2605145674097,7.023347108788585-15.239543471881007,11.051546163294915-24.634980965449358,11.051546163294915Z"/>
  <path class="cls-1" d="M120.932139256439768,90.032555789616708c0-19.119219574904491-12.704933208250623-32.996201048183138-30.209257288450317-32.996201048183138-8.91409871363885,0-17.267153922074613,3.49962064472038-23.519892418726158,9.854031266535458-6.251960889577276,6.353244211201854-9.615500296027676,14.764231146786187-9.472031790539404,23.683578708185451.136470041806206,8.482721188329378,3.515561589772915,16.507431809000991,9.5148001797088,22.595900810885723,6.000793804087152,6.090218617804567,13.975543170137826,9.585951227147234,22.455737135469462,9.843339169239698.346035148739247.010497695526283.690515083326318.015746543287605,1.035383821452342.015746543287605,9.62871961631572,0,18.942897170462857-4.073883470211513,25.693304195637211-11.273941786977957l-10.165657302168256-9.530741124759516c-4.258565150716095,4.542391733388286-10.155937213718971,7.042204080373267-16.140012465676591,6.860632828171219-7.688201158611264-.233282122746459-14.353849012522915-5.237766860942429-17.110854899834521-12.084985967056127h47.918480833127433v-6.967359399328416ZM72.968557212914675,83.065196390288293c.926518830836358-2.362953501641641,2.330877209764367-4.535782073246082,4.166807515770415-6.401261448132573,3.612373670712259-3.671083004936918,8.437814379700285-5.6928614020635,13.587517239304361-5.6928614020635,8.437036772624197,0,13.376785721757187,5.392705070796183,15.316526572385555,12.094122850196072h-33.070851327460332Z"/>
  <rect class="cls-2" x="30.273263108056199" y="58.5390804154531" width="19.947176708880761" height="17.682396100560254"/>
  <path class="cls-1" d="M50.22043981693696,121.339794269121739c-20.7488896040486,0-37.62918400590479-16.880488803622939-37.62918400590479-37.629378407673357v-45.118317753106567h17.682007297024029v45.118317753106567c0,10.998863283906758,8.948313424974003,19.946982307112194,19.947176708880761,19.946982307112194v17.682396100561164Z"/>
</svg>