<svg id="Layer_1" data-name="Layer 1" xmlns="http://www.w3.org/2000/svg" viewBox="0 0 682.93 87.83"><defs><style>.cls-1{fill:#181e30;}</style></defs><title>T1_Logo_without taglineArtboard 2-K</title><path class="cls-1" d="M8.64,52.22C8.64,58.27,11.4,64,23.14,64h3.42c13.56,0,14.29-5.9,14.29-13.33V46.54h-5.1V49.3c0,7.8-1.32,9.54-9.63,9.54h-2c-6.84,0-9.25-2.1-9.25-9V31.3H39.75V26.2H14.9V17.37H8.64V26.2H.47v5.1H8.64Z"/><path class="cls-1" d="M64.32,64H75.69c11.66,0,18.73-2.54,18.73-11.07v-.73H88.15c-.37,5.69-3.58,6.69-11.44,6.69H68.1c-10.93,0-15-2.17-15-10.62V45.88H94.42V41.72c0-13.26-8.1-16.1-19.33-16.1h-10c-8.89,0-18.22,1.53-18.22,15v8.09C46.83,62.42,56.16,64,64.32,64Zm1.6-33.22h9.17c10.21,0,13.06,3.79,13.06,7.58v2.46H53.1C53.67,32.32,56,30.73,65.92,30.73Z"/><path class="cls-1" d="M118.19,64h14.12c11.67,0,16.32-3.64,16.32-13V49.82h-5.81v1.24c0,6-4.9,7.78-10.72,7.78H121.54c-7.59,0-12.7-1.88-12.7-10.2V40.85c0-9.26,5.54-10.12,11.46-10.12h11.51c6.26,0,10.34,1.45,10.34,7.65v.86H148v-1c0-7.88-4.59-12.61-16.26-12.61h-10.5c-9.18,0-18.65,1.53-18.65,15v8.31C102.58,62.42,112.58,64,118.19,64Z"/><path class="cls-1" d="M164.52,42.24c0-8.75,3.37-11.51,18-11.51h1.61c12.16,0,13.69,3.56,13.69,9V63.37h6.28V38.23c0-6.71-3.73-12.61-15.46-12.61h-9c-7.8,0-12.69,1.24-15,7h-.16v-22h-6.25V63.37h6.25Z"/><path class="cls-1" d="M222.17,42.24c0-8.75,3.37-11.51,18-11.51h1.62c12.15,0,13.69,3.56,13.69,9V63.37h6.27V38.23c0-6.71-3.71-12.61-15.44-12.61H236.9c-7.8,0-12.68,1.24-15,7h-.14V26.2h-5.84V63.37h6.26Z"/><path class="cls-1" d="M292.87,64h9c11.89,0,20.56-2.84,20.56-15.08V40.71c0-12.25-8.67-15.09-20.56-15.09h-9c-11.88,0-20.54,2.84-20.54,15.09v8.16C272.33,61.11,281,64,292.87,64ZM278.59,41.07c0-8.67,5.1-10.34,12.38-10.34h12.76c7.3,0,12.39,1.67,12.39,10.34V48.5c0,8.67-5.09,10.34-12.39,10.34H291c-7.28,0-12.38-1.67-12.38-10.34Z"/><rect class="cls-1" x="333.83" y="10.61" width="6.25" height="52.76"/><path class="cls-1" d="M372.09,64h9c11.87,0,20.54-2.84,20.54-15.08V40.71c0-12.25-8.67-15.09-20.54-15.09h-9c-11.88,0-20.55,2.84-20.55,15.09v8.16C351.54,61.11,360.21,64,372.09,64ZM357.81,41.07c0-8.67,5.1-10.34,12.38-10.34h12.75c7.31,0,12.4,1.67,12.4,10.34V48.5c0,8.67-5.09,10.34-12.4,10.34H370.19c-7.28,0-12.38-1.67-12.38-10.34Z"/><path class="cls-1" d="M426.11,61.7H439c8.75,0,11.31-2.26,12.62-5.76h.15v5.54c0,10.05-5,10.21-17.35,10.21h-6.13c-5.82,0-10.78-1.4-10.78-6.2v-1h-5.82v1.25c0,4.73,3.05,11.07,14.57,11.07h14.14c7.8,0,17.64-2.26,17.64-13.49V26.2H452.2v6.63h-.15c-2-6-6.7-7.21-11.45-7.21H427.28c-7,0-16.77,1.53-16.77,15v6.2C410.51,56.37,415.68,61.7,426.11,61.7Zm-9.33-23.11c.07-6.12,4.66-7.86,11.08-7.86H440.6c8.84,0,11.3,4.44,11.16,11.37v4.51c0,6.41-3.27,10-12.25,10h-12.1c-7.65,0-10.71-2.62-10.63-11.15Z"/><path class="cls-1" d="M486.82,64c-3.28,7.51-5.32,8.16-15,8.16v5.11c12.91-.14,15.54-1.6,19.4-9.26l21-41.76h-6.78L489.3,59.07l-18-32.87h-7.07L485.29,64Z"/><path class="cls-1" d="M531.79,64H552.7c7.14,0,15.38-2.47,15.38-14.72V40.35c0-12.25-8.24-14.73-15.38-14.73H531.79c-7.14,0-15.38,2.48-15.38,14.73v8.88C516.41,61.48,524.65,64,531.79,64ZM530.4,43c0-5.32,3.13-6.93,9.54-6.93h3.36c9,0,10.79,1.17,10.79,6.13v5.1c0,4.95-1.75,6.12-10.79,6.12h-3.36c-6.41,0-9.54-1.6-9.54-6.92Z"/><path class="cls-1" d="M590.75,44.64c0-5.32,3.56-8.08,9.54-8.08h3.22c6.1,0,9,1.82,9,5.46V63.37h14V42c0-16-12.11-16.4-20.77-16.4-7.51,0-12.39,1.38-14.87,6.56h-.15v-6h-14V63.37h14Z"/><path class="cls-1" d="M653.42,64h10.5c10.13,0,18.44-2,18.44-11.36V51H669.25c0,2.18-.37,4.22-8,4.22H657c-5.82,0-8.6-1.09-8.6-5V47.92h34V41.65c0-12.9-6.11-16-21-16h-9.75c-10.22,0-17.21,3.06-17.21,17.12v3.57C634.41,62.21,644.17,64,653.42,64Zm5.18-29.58c8.17,0,10.22.8,10.22,5.23H648.4C648.4,35.17,649.49,34.37,658.6,34.37Z"/></svg>