<?xml version="1.0" encoding="UTF-8"?>
<!-- Generator: Adobe Illustrator 27.2.0, SVG Export Plug-In . SVG Version: 6.00 Build 0)  -->
<svg xmlns="http://www.w3.org/2000/svg" xmlns:xlink="http://www.w3.org/1999/xlink" version="1.1" id="Layer_1" x="0px" y="0px" viewBox="0 0 131.8 61" style="enable-background:new 0 0 131.8 61;" xml:space="preserve">
<style type="text/css">
	.st0{fill:none;}
	.st1{fill:none;stroke:#231F20;stroke-width:0.5;stroke-miterlimit:10;}
</style>
<rect x="-61.6" y="-37.3" class="st0" width="255.1" height="155.9"></rect>
<g>
	<path d="M7.5,52.1L7.5,52.1l3.1-7.5h3.3v0.5L8.3,58H6.9L1.2,45.1v-0.5h3.3L7.5,52.1z"></path>
	<path d="M25.5,54.9v3h-6.7v-3h1.7v-7.4h-1.6v-3h6.5v3h-1.6v7.4H25.5z"></path>
	<path d="M36.9,52.1L36.9,52.1l3.1-7.5h3.3v0.5L37.7,58h-1.4l-5.7-12.9v-0.5h3.3L36.9,52.1z"></path>
	<path d="M55.1,44.4c2.8,0,5.7,1.5,6.2,5.1c-1.2,0-2.2,0-3.3,0c-0.5-1.3-1.5-2-2.9-2c-2,0-3.3,1.5-3.3,3.7c0,2,1.3,3.7,3.3,3.7   c1.4,0,2.6-0.7,3-2.1c1.1,0,2.2,0,3.3,0C61,56.5,58,58,55.1,58c-3.4,0-6.8-2.3-6.8-6.8C48.3,46.7,51.8,44.4,55.1,44.4z"></path>
	<path d="M67,51.3c0-9.2,13.6-9.2,13.6,0C80.7,60.5,67,60.5,67,51.3z M77.2,51.3c0-4.8-6.7-4.8-6.7,0C70.5,56.1,77.2,56.1,77.2,51.3   z"></path>
	<path d="M94.2,53.4v-8.8c1.1,0,2.2,0,3.2,0v8.9c0,2.9-2.5,4.6-5.3,4.6c-2.7,0-5.3-1.7-5.3-4.6v-8.9c1.1,0,2.2,0,3.2,0v8.8   c0,1.1,1,1.6,2,1.6C93.2,55,94.2,54.5,94.2,53.4z"></path>
	<path d="M115.8,57.4v0.5H112l-2.3-3.9h-1.8v3.9c-1.1,0-2.3,0-3.4,0c0-4.4,0-8.9,0-13.3c1.9,0,3.9,0,5.8,0c5.2,0,6.2,6.3,2.8,8.6   L115.8,57.4z M110.4,47.6c-0.8,0-1.6,0-2.4,0c0,1.1,0,2.3,0,3.3h2.4C112.2,50.9,112.3,47.6,110.4,47.6z"></path>
	<path d="M120.3,47.6c0-1,0-2,0-3h9.9c0,1,0,2,0,3H127v10.3c-1.1,0-2.2,0-3.4,0V47.6H120.3z"></path>
</g>
<path d="M112.7,0.6c-1.1,2.9-11.6,9.1-21.8,12.6c-10.2,3.5-15.4,4.4-16.3,5.9c-0.8,1.5-5.5,6.5-10.9,13.1c-0.7,0.8-4.1,2.1-6.5,0.9  c-1.1-0.6-3.3-0.8-3.3-0.8l-0.7,0.2c0,0-0.8,0.6-0.2,1.5c-0.9,0.2-2.6-3-0.6-4.3c1.1-0.7,1.5-2.5,4.6-3.2c4.6-2.7,4.1-3.1,0.4-3.3  c-1.3-0.1-12.1,0-18.9-0.2c-11-0.4-12.5-2.6-13.4-5.7c-2.3,4.9,10.3,11.3,12.7,11.9c2.4,0.6,9.2,1,9.2,1s6.4,7,7.2,7.2  c0.7,0.2,16.6,0.2,17.8,0c1.2-0.2,4.2-6,6.6-6c2.4,0,4.6-0.9,6.1-1.6c1-0.5,0.7-2.1,2.2-1.9c1.5,0.2,4.2,0,5.1-0.7  c0.8-0.7,0.3-5.6,0.3-5.6s-7.1,3.3-8.1,2.5c-0.6-0.4,3.8-3.7,11.4-4.9c3.9-0.6,8.5-3.2,9.8-4.6C107.7,11.8,115.8,0.6,112.7,0.6z"></path>
</svg>
