<svg xmlns="http://www.w3.org/2000/svg" viewBox="0 0 1709.29 193.72"><g id="Layer_2" data-name="Layer 2"><g id="Layer_2-2" data-name="Layer 2"><path d="M1216.27,38.54c-15.4,0-27.81,6.43-35.12,18.14-7.45-11.71-19.83-18.14-35.06-18.14-26.36,0-42.74,17.74-42.74,46.29v60.29h19.83V84.83c0-17.44,8.71-27.44,23.9-27.44s24.28,10.26,24.28,27.44v60.29h19.84V84.83c0-17.18,9-27.44,24.08-27.44s23.9,10,23.9,27.44v60.29H1259V84.83C1259,56.28,1242.64,38.54,1216.27,38.54Z"/><path d="M574.35,38.37C543.53,38.37,522,60.28,522,91.65c0,31.59,21.22,53.65,51.61,53.65,14.6,0,27.95-5.15,37.59-14.51,10.15-9.84,15.51-23.38,15.51-39.14C626.71,60.28,605.18,38.37,574.35,38.37Zm-.74,90.16c-19.7,0-32.42-14.48-32.42-36.88,0-27.08,17.76-36.69,33-36.69,16.6,0,33.35,11.34,33.35,36.69S590.49,128.53,573.61,128.53Z"/><path d="M696.08,38c-14.5,0-25.55,5.47-32.2,15.88v-14h-19V144.54h19V87.73c0-20.28,9.06-30.14,27.7-30.14h5.47V38Z"/><polygon points="749.13 92.04 798.39 39.91 771.9 39.91 733.77 83.83 733.77 3.94 714.78 3.94 714.78 144.54 733.77 144.54 733.77 100.77 772.66 144.54 798.57 144.54 749.13 92.04"/><path d="M826.68,25.17a12.27,12.27,0,0,0,12.21-12.59A12.27,12.27,0,0,0,826.68,0a12.45,12.45,0,0,0-12.59,12.58A12.46,12.46,0,0,0,826.68,25.17Z"/><rect x="816.91" y="39.91" width="18.99" height="104.62"/><path d="M914,38c-13.47,0-25,5.2-32,14.38V39.91H863V144.54h19V86.79c0-20.34,10.37-32,28.45-32,17.61,0,27.7,11.19,27.7,30.7v59.06h18.8V83C956.94,55.28,940.49,38,914,38Z"/><path d="M1059.71,40v16.1c-6.24-9.06-18.62-17.77-36.88-17.77-29,0-49.2,21.83-49.2,53.09s20.69,53.84,49.2,53.84c17.9,0,30.41-9,36.88-18.37v18c0,19.89-11.72,32.24-30.57,32.24-15.74,0-27.82-7.62-31.54-19.9l-.21-.69H978.85l.17,1.11c3.42,22.25,22.63,36.07,50.12,36.07,29.65,0,49.57-19.62,49.57-48.83V40Zm0,51.61c0,21.71-13.79,36.88-33.54,36.88s-33.36-15.24-33.36-37.07c0-21.49,13.72-36.5,33.36-36.5C1048.19,55,1059.71,73.42,1059.71,91.65Z"/><path d="M1329.07,38.37c-30.82,0-52.35,21.91-52.35,53.28,0,31.59,21.22,53.65,51.61,53.65,14.6,0,28-5.15,37.59-14.51,10.14-9.84,15.51-23.38,15.51-39.14C1381.43,60.28,1359.9,38.37,1329.07,38.37ZM1328.89,55c16.6,0,33.35,11.34,33.35,36.69s-17,36.88-33.91,36.88c-19.7,0-32.43-14.48-32.43-36.88C1295.9,64.57,1313.67,55,1328.89,55Z"/><path d="M1474.76,38.37V96.08c0,20.47-10.44,32.21-28.63,32.21-17.72,0-27.88-11.19-27.88-30.7V38.37h-18.9V99.85c0,27.92,16.62,45.27,43.38,45.27,13.33,0,25.06-5.41,32-14.62v13.11h19.09V38.37Z"/><path d="M1556.56,84.59c-13.1-3.63-24.41-6.76-24.41-16.87,0-8,7.41-13.13,18.89-13.13,12.27,0,20.36,6.41,21.11,16.72l.06.9H1591l-.06-1c-1.14-20.25-16.22-32.82-39.37-32.82-22.16,0-38.25,12.34-38.25,29.35,0,22.08,19.39,27.27,36.5,31.86,12.66,3.39,23.6,6.32,23.6,15.44,0,8.41-8,14.06-19.81,14.06-13,0-22-6.42-23-16.37l-.08-.88h-19.34l.06,1c1.14,19.1,18.63,32.44,42.52,32.44,22.41,0,38.07-12.45,38.07-30.3C1591.46,94.27,1572.92,89.13,1556.56,84.59Z"/><path d="M1659.54,38.37c-30.65,0-51.25,21.41-51.25,53.28,0,15.87,5,29.4,14.57,39.12,9.17,9.37,22.2,14.53,36.68,14.53,23.58,0,41.85-12.92,47.68-33.73l.34-1.22h-20.15l-.22.65c-3.9,11.49-14,18.08-27.65,18.08-18,0-30.41-11.72-32-30h81.09l.09-.87a92.09,92.09,0,0,0,.56-10.3C1709.29,58.75,1688.83,38.37,1659.54,38.37Zm-31.77,45.08c2.07-17.57,14.15-28.86,31-28.86,9.32,0,17.57,3.14,23.24,8.86,5,5.09,7.76,12,7.89,20Z"/><path d="M484.85,38.19V98.35c0,17.4-8.69,27.38-23.85,27.38s-24.23-10.24-24.23-27.38V38.19H417V98.35c0,17.14-9,27.38-24,27.38s-23.84-10-23.84-27.38V38.19H349.32V98.35c0,28.49,16.34,46.19,42.64,46.19,15.37,0,27.75-6.41,35.05-18.1,7.42,11.69,19.78,18.1,35,18.1,26.31,0,42.66-17.7,42.66-46.19V38.19Z"/><path d="M254,96.65c0-1.64,0-3.26-.17-4.87-2.07-29.63-22.86-52.9-48.21-52.9C182,38.88,162.42,59,158.09,85.57h-6.28c-4.33-26.6-23.92-46.69-47.46-46.69S61.19,59,56.86,85.57H0c0,1.64.06,3.26.17,4.87,2.07,29.62,22.87,52.9,48.21,52.9,23.54,0,43.16-20.09,47.49-46.69h6.27c4.34,26.6,23.93,46.69,47.46,46.69s43.16-20.09,47.49-46.69Z"/></g></g></svg>