<?xml version="1.0" standalone="no"?>
<!DOCTYPE svg PUBLIC "-//W3C//DTD SVG 20010904//EN"
 "http://www.w3.org/TR/2001/REC-SVG-20010904/DTD/svg10.dtd">
<svg version="1.0" xmlns="http://www.w3.org/2000/svg"
 width="215.000000pt" height="215.000000pt" viewBox="0 0 215.000000 215.000000"
 preserveAspectRatio="xMidYMid meet">
<metadata>
Created by potrace 1.11, written by Peter Selinger 2001-2013
</metadata>
<g transform="translate(0.000000,215.000000) scale(0.100000,-0.100000)"
fill="#000000" stroke="none">
<path d="M582 2030 c-71 -17 -95 -50 -340 -475 l-237 -410 1 -65 c1 -60 5 -72
58 -165 31 -55 61 -107 67 -115 17 -28 246 -426 279 -486 74 -133 97 -158 169
-182 24 -9 172 -11 510 -9 421 2 479 4 506 19 41 22 76 58 101 104 12 22 112
197 224 389 111 193 208 366 214 385 23 64 11 117 -52 225 -63 109 -145 251
-276 478 -76 131 -146 247 -157 258 -11 11 -41 29 -65 40 -43 18 -72 19 -507
18 -254 -1 -477 -5 -495 -9z"/>
</g>
</svg>
