<?xml version="1.0" standalone="no"?>
<!DOCTYPE svg PUBLIC "-//W3C//DTD SVG 20010904//EN"
 "http://www.w3.org/TR/2001/REC-SVG-20010904/DTD/svg10.dtd">
<svg version="1.0" xmlns="http://www.w3.org/2000/svg"
 width="571.000000pt" height="571.000000pt" viewBox="0 0 571.000000 571.000000"
 preserveAspectRatio="xMidYMid meet">
<metadata>
Created by potrace 1.11, written by Peter Selinger 2001-2013
</metadata>
<g transform="translate(0.000000,571.000000) scale(0.100000,-0.100000)"
fill="#000000" stroke="none">
<path d="M1698 5430 c-122 -21 -235 -69 -343 -145 -108 -76 -161 -144 -292
-370 -127 -219 -225 -388 -241 -417 -26 -46 -182 -317 -354 -614 -80 -138
-157 -271 -171 -295 -13 -24 -72 -125 -129 -225 -135 -234 -167 -335 -163
-516 3 -163 41 -284 144 -453 23 -37 41 -68 41 -70 0 -1 30 -54 66 -116 60
-101 269 -465 314 -544 26 -46 109 -188 120 -205 5 -8 21 -37 36 -65 14 -27
32 -57 40 -66 8 -8 14 -18 14 -22 0 -3 14 -30 31 -59 18 -29 40 -66 49 -83
274 -479 319 -552 382 -620 132 -143 305 -230 495 -251 76 -8 2162 -9 2233 0
25 2 60 7 78 11 51 9 189 61 221 84 16 12 33 21 38 21 4 0 22 11 38 25 143
120 170 153 278 340 41 72 150 261 242 420 92 160 261 452 375 650 114 198
217 376 228 395 11 19 33 58 48 85 14 28 29 52 33 55 7 6 31 49 71 130 112
221 112 487 3 705 -14 27 -49 91 -78 140 -29 50 -62 107 -74 128 -31 56 -42
73 -261 452 -111 193 -263 456 -337 585 -75 129 -146 252 -159 272 -13 21 -24
40 -24 43 0 3 -12 24 -27 48 -14 23 -40 67 -56 97 -139 255 -340 406 -598 449
-77 13 -2235 13 -2311 1z"/>
</g>
</svg>
