<svg width="106" height="56" viewBox="0 0 106 56" fill="none" xmlns="http://www.w3.org/2000/svg">
<path class="l-c" d="M16.2437 25.2272L16.0949 26.4618C15.5793 26.075 15.0662 25.7625 14.5583 25.5294C13.4783 25.0299 12.1802 24.7764 10.6974 24.7764C7.57286 24.7764 4.96905 25.8829 2.9527 28.0755C0.992784 30.2322 0 33.0139 0 36.3386C0 39.2663 0.882474 41.6997 2.62434 43.572C4.38928 45.4675 6.68782 46.428 9.45582 46.428C10.9283 46.428 12.3726 46.0413 13.7681 45.278L13.6758 45.9952H20.3303L22.8905 25.2272H16.2437ZM10.4204 40.5521C9.31216 40.5521 8.43481 40.1705 7.73961 39.3867C7.00849 38.5619 6.65191 37.5066 6.65191 36.1619C6.65191 34.5712 7.10084 33.2752 8.0218 32.2019C8.9017 31.1876 9.95606 30.6932 11.2439 30.6932C12.4111 30.6932 13.3295 31.0775 14.058 31.8766C14.8071 32.686 15.1688 33.7336 15.1688 35.0835C15.1688 36.5999 14.6917 37.878 13.7091 38.9948C12.7651 40.0424 11.6877 40.5521 10.4204 40.5521Z" fill="#B2B2B2"></path>
<path class="l-c" d="M39.8984 25.2272L39.7599 26.3721C39.2417 25.9956 38.726 25.6985 38.2181 25.4833C37.2176 25.0146 35.9375 24.7764 34.4086 24.7764C31.2353 24.7764 28.5468 25.8752 26.4176 28.0422C24.3089 30.1912 23.2417 32.9217 23.2417 36.1593C23.2417 39.0614 24.1729 41.5306 26.0148 43.5029C27.8696 45.4444 30.2425 46.428 33.0721 46.428C34.5651 46.428 36.0196 46.0874 37.4203 45.4111L37.3998 45.5802C37.192 47.3066 36.7328 48.5643 36.0401 49.3352C35.3142 50.0115 34.4394 50.388 33.4132 50.4597C32.382 50.534 31.4662 50.4981 30.6683 50.3496C29.8705 50.2036 28.3621 49.6144 27.5335 49.2533L25.1195 53.9612C26.043 54.394 28.4929 55.3904 29.6268 55.6184C32.5308 56.2024 35.7143 56.2613 38.3566 54.7424C40.7629 53.3592 43.0281 50.89 43.6181 48.1339C43.8003 47.2835 43.967 46.2769 44.1158 45.1294L46.5529 25.2272H39.8984ZM34.0956 40.5316C32.795 40.5316 31.7894 40.15 31.0454 39.3867C30.2707 38.5517 29.8962 37.4836 29.8962 36.1209C29.8962 34.5149 30.3528 33.2316 31.2891 32.1994C32.2101 31.185 33.3337 30.6907 34.7241 30.6907C36.0684 30.6907 37.1125 31.0877 37.9231 31.9048C38.7286 32.7091 39.1211 33.7669 39.1211 35.1373C39.1211 36.7331 38.6491 38.0138 37.682 39.046C36.7456 40.0475 35.5707 40.5316 34.0956 40.5316Z" fill="#B2B2B2"></path>
<path class="l-c" d="M46.748 45.9981H53.3974L55.9602 25.2275H49.3108L46.748 45.9981Z" fill="#B2B2B2"></path>
<path class="l-c" d="M69.0639 24.7764C67.7864 24.7764 66.5217 25.1017 65.2775 25.7446L65.3365 25.2272H58.7179L56.1577 45.9952H62.8071L64.0307 36.0825C64.1179 35.3755 64.218 34.7428 64.3309 34.2024C64.4335 33.7106 64.554 33.3008 64.7028 32.9601C64.9465 32.3633 65.3134 31.8689 65.8393 31.4361C66.4293 30.934 67.1271 30.6881 67.9659 30.6881C69.2896 30.6881 69.5333 31.1492 69.5333 32.0559C69.5333 32.2839 69.5231 32.54 69.5051 32.8269C69.4872 33.1138 69.4538 33.4493 69.4025 33.8387L67.9095 45.99H74.5383L75.9031 35.0553C76.0647 33.708 76.1468 32.5272 76.1468 31.5436C76.1468 29.4868 75.4926 27.8219 74.1894 26.5847C72.8862 25.3885 71.1623 24.7764 69.0639 24.7764Z" fill="#B2B2B2"></path>
<path class="l-c" d="M77.2778 45.9981H83.9272L86.4874 25.2275H79.838L77.2778 45.9981Z" fill="#B2B2B2"></path>
<path class="l-c" d="M98.0032 30.5344C98.8857 30.5344 99.6168 30.7163 100.235 31.0928C100.928 31.5155 101.684 32.2506 102.487 33.2751L105.155 27.658L104.647 27.2584C102.421 25.5089 100.032 24.6201 97.5543 24.6201C94.5143 24.6201 91.931 25.7241 89.8813 27.9039C87.8624 30.0503 86.8389 32.7501 86.8389 35.9262C86.8389 39.0281 87.7983 41.6049 89.6941 43.5874C91.613 45.5776 94.1193 46.5868 97.1412 46.5868C98.801 46.5868 100.561 46.2154 102.367 45.4829L102.99 45.2318L101.787 38.9641C100.366 40.109 99.0088 40.6905 97.7518 40.6905C96.4743 40.6905 95.4686 40.2781 94.6811 39.4277C93.8807 38.567 93.4933 37.4144 93.4933 35.9083C93.4933 34.269 93.9217 32.9806 94.8042 31.9688C95.638 31.0032 96.6872 30.5344 98.0032 30.5344Z" fill="#B2B2B2"></path>
<path class="l-d" d="M84.6764 20.1891C90.26 20.1891 94.7863 15.6696 94.7863 10.0945C94.7863 4.51948 90.26 0 84.6764 0C79.0928 0 74.5664 4.51948 74.5664 10.0945C74.5664 15.6696 79.0928 20.1891 84.6764 20.1891Z" fill="#FBB416"></path>
<path class="l-d" d="M53.5487 20.1918C56.9575 20.1918 59.7208 17.4326 59.7208 14.029C59.7208 10.6254 56.9575 7.86621 53.5487 7.86621C50.1399 7.86621 47.3765 10.6254 47.3765 14.029C47.3765 17.4326 50.1399 20.1918 53.5487 20.1918Z" fill="#FBB416"></path>
</svg>
