<!-- Generator: Adobe Illustrator 24.1.2, SVG Export Plug-In . SVG Version: 6.00 Build 0)  -->
<svg version="1.1" id="Layer_1" xmlns="http://www.w3.org/2000/svg" xmlns:xlink="http://www.w3.org/1999/xlink" x="0px" y="0px" viewBox="0 0 128.4 35.39" style="enable-background:new 0 0 128.4 35.39;" xml:space="preserve">
<style type="text/css">
	.st0{fill-rule:evenodd;clip-rule:evenodd;}
</style>
<g>
	<g>
		<path d="M76.66,7.54l-0.04-0.42C76.54,5,75.65,4.54,71.81,4.54c-5.01,0-6.1,0.46-6.1,2.64c0,1.79,0.61,2.46,2.47,2.64    c0.44,0.03,0.93,0.09,1.49,0.09c0.53,0.03,1.5,0.09,2.95,0.15c5.33,0.21,6.91,0.52,8.17,1.61c1.01,0.88,1.41,1.91,1.41,3.85    c0,2.76-0.45,4.06-1.66,4.91c-1.7,1.18-3.64,1.49-9.01,1.49c-5.3,0-7.04-0.18-8.61-0.97c-1.62-0.82-2.47-2.33-2.47-4.58    c0-0.18,0.04-0.52,0.04-0.97h4.93v0.45c0,2.18,0.81,2.94,3.27,2.97h2.39l0.73,0.03c4.53,0,5.3-0.46,5.3-3c0-2-0.65-2.46-3.8-2.58    l-2.83-0.15c-5.5-0.24-6.51-0.39-7.88-1.27c-1.42-0.88-2.02-2.21-2.02-4.36c0-2.52,0.65-4,2.1-4.76c1.82-0.94,3.72-1.21,8.73-1.21    c4.49,0,6.39,0.24,7.84,1c1.57,0.82,2.3,2.18,2.3,4.3c0,0.18,0,0.43,0,0.73H76.66z"/>
		<path d="M95.3,21.82h-5.18V1.63h5.18V21.82z"/>
		<path d="M126.87,11.09l0.04,0.58l0.04,3.18v0.27c0,3.37-0.61,4.7-2.59,5.73c-1.7,0.91-3.6,1.12-9.01,1.12    c-5.5,0-7.36-0.27-9.18-1.42c-2.06-1.33-2.79-3-2.79-6.64v-0.42c0.04-1.03,0.04-1.79,0.04-2.21c0.04-3.61,0.12-4.21,0.56-5.52    c0.44-1.24,1.33-2.27,2.46-2.94c2.02-1.12,3.52-1.33,8.86-1.33c6.1,0,7.28,0.12,9.01,0.97c1.05,0.52,1.82,1.37,2.14,2.33    c0.32,0.94,0.36,1.18,0.4,2.94h-5.13l-0.04-0.4c-0.2-2.3-0.93-2.61-6.43-2.61c-2.95,0-4.37,0.18-5.18,0.7    c-1.05,0.67-1.37,1.55-1.37,4.03l-0.04,2.03l0.04,2.61c0.04,2.39,0.28,3.24,1.25,3.85c0.89,0.57,2.34,0.76,5.58,0.76    c5.46,0,6.27-0.49,6.27-4.03c0-0.15,0-0.36,0-0.7h-6.83v-2.88H126.87z"/>
	</g>
	<path class="st0" d="M1.2,13.94c1.67,0.98,2.56,2.31,6.05,2.31c3.49,0,5.68-2.31,9.82-2.31c4.18,0,6.47,2.31,10.66,2.31   c4.14,0,5.77-2.31,9.77-2.31c4.05,0,6.23,2.31,9.82,2.31c3.59,0,4.79-1.45,6.84-2.31v5.42c-2.05,0.87-3.26,2.26-6.84,2.26   c-3.58,0-5.77-2.32-9.82-2.32c-4,0-5.63,2.32-9.77,2.32c-4.19,0-6.47-2.32-10.66-2.32c-4.14,0-6.33,2.32-9.82,2.32   c-3.49,0-4.37-1.28-6.05-2.26V13.94L1.2,13.94z"/>
	<path class="st0" d="M1.2,9.79L1.2,9.79v2.97c1.67,0.98,2.56,2.23,6.05,2.23c3.49,0,5.68-2.29,9.82-2.29   c4.18,0,6.47,2.29,10.66,2.29c4.14,0,5.77-2.29,9.77-2.29c4.05,0,6.23,2.29,9.82,2.29c3.59,0,4.79-1.36,6.84-2.23V9.79   c-2.05,0.87-3.26,2.29-6.84,2.29c-3.58,0-5.77-2.29-9.82-2.29c-4,0-5.63,2.29-9.77,2.29c-4.19,0-6.47-2.29-10.66-2.29   c-4.14,0-6.33,2.29-9.82,2.29C3.76,12.08,2.88,10.77,1.2,9.79"/>
	<path class="st0" d="M1.2,6.76L1.2,6.76V8.5c1.67,0.95,2.56,2.23,6.05,2.23c3.49,0,5.68-2.29,9.82-2.29   c4.18,0,6.47,2.29,10.66,2.29c4.14,0,5.77-2.29,9.77-2.29c4.05,0,6.23,2.29,9.82,2.29c3.59,0,4.79-1.36,6.84-2.23V6.76   c-2.05,0.87-3.26,2.29-6.84,2.29c-3.58,0-5.77-2.29-9.82-2.29c-4,0-5.63,2.29-9.77,2.29c-4.19,0-6.47-2.29-10.66-2.29   c-4.14,0-6.33,2.29-9.82,2.29C3.76,9.05,2.88,7.74,1.2,6.76"/>
	<path d="M55.21,20.32c0.41,0,0.77,0.14,1.05,0.42c0.28,0.26,0.42,0.6,0.42,0.99c0,0.36-0.16,0.7-0.43,0.95   c-0.29,0.26-0.66,0.41-1.04,0.41c-0.39,0-0.76-0.15-1.04-0.42c-0.28-0.26-0.42-0.6-0.42-0.97c0-0.37,0.16-0.72,0.45-0.99   C54.46,20.45,54.81,20.32,55.21,20.32z M55.2,20.05c-0.63,0-1.18,0.3-1.5,0.8c-0.17,0.28-0.26,0.56-0.26,0.86   c0,0.43,0.17,0.84,0.5,1.15c0.34,0.32,0.78,0.5,1.25,0.5c0.46,0,0.9-0.17,1.25-0.48c0.33-0.3,0.52-0.71,0.52-1.17   c0-0.44-0.17-0.85-0.5-1.16C56.13,20.22,55.69,20.05,55.2,20.05z M54.48,20.75v1.84h0.47v-0.75h0.23l0.38,0.75h0.53l-0.44-0.82   c0.27-0.06,0.43-0.25,0.43-0.49c0-0.35-0.28-0.53-0.84-0.53H54.48z M54.95,21.04h0.21c0.29,0,0.43,0.08,0.43,0.27   c0,0.18-0.13,0.26-0.4,0.26h-0.23V21.04z"/>
	<g>
		<path d="M1.59,31.2H2.5c0.02,0.48,0.18,0.84,0.5,1.07c0.32,0.23,0.79,0.35,1.42,0.35c0.54,0,0.96-0.09,1.26-0.27    c0.3-0.18,0.44-0.44,0.44-0.77c0-0.24-0.08-0.43-0.24-0.56c-0.16-0.13-0.43-0.24-0.81-0.3l-1.52-0.27    c-0.61-0.11-1.06-0.29-1.34-0.55c-0.28-0.26-0.42-0.62-0.42-1.07c0-0.59,0.22-1.05,0.67-1.37c0.45-0.32,1.08-0.48,1.91-0.48    c0.78,0,1.38,0.17,1.8,0.5c0.42,0.34,0.63,0.81,0.64,1.44H5.94c-0.03-0.39-0.18-0.68-0.44-0.86c-0.27-0.19-0.67-0.28-1.2-0.28    c-0.52,0-0.92,0.08-1.19,0.25c-0.27,0.17-0.41,0.41-0.41,0.72c0,0.23,0.08,0.41,0.23,0.53c0.16,0.12,0.44,0.23,0.85,0.31    l1.35,0.27c0.71,0.14,1.2,0.33,1.48,0.58c0.28,0.25,0.42,0.61,0.42,1.08c0,0.61-0.23,1.08-0.69,1.41c-0.46,0.34-1.11,0.5-1.96,0.5    c-0.91,0-1.6-0.19-2.07-0.56C1.84,32.5,1.6,31.94,1.59,31.2z"/>
		<path d="M18.73,27.15v3.84c0,0.8-0.23,1.4-0.69,1.82s-1.13,0.62-2.02,0.62c-0.89,0-1.56-0.21-2.01-0.62    c-0.46-0.42-0.69-1.02-0.69-1.82v-3.84h0.86v3.47c0,0.67,0.15,1.17,0.45,1.49c0.3,0.32,0.76,0.48,1.39,0.48    c0.63,0,1.1-0.16,1.4-0.48c0.3-0.32,0.45-0.82,0.45-1.49v-3.47H18.73z"/>
		<path d="M25.08,31.2h0.91c0.02,0.48,0.18,0.84,0.5,1.07c0.32,0.23,0.79,0.35,1.42,0.35c0.54,0,0.96-0.09,1.26-0.27    c0.3-0.18,0.44-0.44,0.44-0.77c0-0.24-0.08-0.43-0.24-0.56c-0.16-0.13-0.43-0.24-0.81-0.3l-1.51-0.27    c-0.61-0.11-1.06-0.29-1.34-0.55c-0.28-0.26-0.42-0.62-0.42-1.07c0-0.59,0.22-1.05,0.67-1.37c0.45-0.32,1.08-0.48,1.91-0.48    c0.78,0,1.38,0.17,1.8,0.5c0.42,0.34,0.63,0.81,0.64,1.44h-0.86c-0.03-0.39-0.18-0.68-0.44-0.86c-0.27-0.19-0.67-0.28-1.2-0.28    c-0.52,0-0.92,0.08-1.19,0.25c-0.28,0.17-0.41,0.41-0.41,0.72c0,0.23,0.08,0.41,0.23,0.53c0.16,0.12,0.44,0.23,0.85,0.31    l1.34,0.27c0.71,0.14,1.2,0.33,1.48,0.58c0.28,0.25,0.42,0.61,0.42,1.08c0,0.61-0.23,1.08-0.69,1.41c-0.46,0.34-1.12,0.5-1.96,0.5    c-0.91,0-1.6-0.19-2.07-0.56C25.33,32.5,25.09,31.94,25.08,31.2z"/>
		<path d="M41.52,33.08c-0.22,0.12-0.45,0.21-0.72,0.26c-0.26,0.05-0.58,0.08-0.96,0.08c-1.03,0-1.84-0.29-2.44-0.87    c-0.6-0.58-0.9-1.36-0.9-2.35c0-0.99,0.3-1.77,0.9-2.35c0.6-0.58,1.42-0.87,2.45-0.87c1.03,0,1.84,0.29,2.44,0.87    c0.6,0.58,0.9,1.37,0.9,2.35c0,0.5-0.09,0.97-0.26,1.39c-0.17,0.42-0.42,0.77-0.75,1.04l0.83,0.66l-0.49,0.62L41.52,33.08z     M40.8,32.48l-0.64-0.52l0.47-0.6l0.9,0.73c0.25-0.2,0.44-0.46,0.57-0.78c0.13-0.33,0.2-0.69,0.2-1.1c0-0.76-0.22-1.35-0.65-1.77    c-0.43-0.42-1.03-0.64-1.8-0.64c-0.77,0-1.37,0.21-1.8,0.64c-0.43,0.43-0.65,1.02-0.65,1.77c0,0.76,0.22,1.36,0.65,1.78    c0.44,0.42,1.05,0.63,1.85,0.63c0.19,0,0.36-0.01,0.51-0.03C40.55,32.56,40.68,32.53,40.8,32.48z"/>
		<path d="M54.86,27.15v3.84c0,0.8-0.23,1.4-0.69,1.82c-0.46,0.42-1.13,0.62-2.02,0.62c-0.89,0-1.56-0.21-2.01-0.62    c-0.46-0.42-0.69-1.02-0.69-1.82v-3.84h0.86v3.47c0,0.67,0.15,1.17,0.45,1.49c0.3,0.32,0.76,0.48,1.39,0.48    c0.63,0,1.1-0.16,1.4-0.48C53.85,31.8,54,31.3,54,30.63v-3.47H54.86z"/>
		<path d="M61.49,33.27v-6.11h4.86v0.79h-4v1.8h3.75v0.8h-3.75v1.9h4.06v0.82H61.49z"/>
		<path d="M72.71,33.27v-6.11h0.86v2.47h3.73v-2.47h0.86v6.11H77.3v-2.84h-3.73v2.84H72.71z"/>
		<path d="M84.02,33.27l2.9-6.11h0.91l2.72,6.11h-0.9l-0.78-1.74h-3.12l-0.82,1.74H84.02z M86.11,30.73h2.4l-1.17-2.61L86.11,30.73z    "/>
		<path d="M96.47,33.27v-6.11h1.17l3.85,5.22v-5.22h0.84v6.11h-1.17l-3.85-5.22v5.22H96.47z"/>
		<path d="M108.95,33.27v-6.11h1.17l3.85,5.22v-5.22h0.84v6.11h-1.17l-3.85-5.22v5.22H108.95z"/>
		<path d="M120.67,33.27l2.9-6.11h0.91l2.72,6.11h-0.9l-0.78-1.74h-3.12l-0.81,1.74H120.67z M122.76,30.73h2.4L124,28.12    L122.76,30.73z"/>
	</g>
</g>
</svg>
