<svg xmlns="http://www.w3.org/2000/svg" xmlns:xlink="http://www.w3.org/1999/xlink" x="0px" y="0px" width="266.893px" height="266.895px" viewBox="0 0 266.893 266.895" enable-background="new 0 0 266.893 266.895" xml:space="preserve"><path d="M 18.8125 4.5878906 C 10.9555 4.5878906 4.5878906 10.9555 4.5878906 18.8125 L 4.5878906 248.08203 C 4.5878906 255.93703 10.9545 262.30664 18.8125 262.30664 L 142.24219 262.30664 L 142.24219 162.50391 L 108.6582 162.50391 L 108.6582 123.60938 L 142.24219 123.60938 L 142.24219 94.925781 C 142.24219 61.638781 162.57258 43.511719 192.26758 43.511719 C 206.49158 43.511719 218.7173 44.570922 222.2793 45.044922 L 222.2793 79.832031 L 201.68359 79.841797 C 185.53559 79.841797 182.4082 87.516344 182.4082 98.777344 L 182.4082 123.60938 L 220.92383 123.60938 L 215.9082 162.50391 L 182.4082 162.50391 L 182.4082 262.30664 L 248.08203 262.30664 C 255.93603 262.30664 262.30469 255.93803 262.30469 248.08203 L 262.30469 18.8125 C 262.30469 10.9555 255.93703 4.5878906 248.08203 4.5878906 L 18.8125 4.5878906 z" fill="white"/></svg>
