<svg xmlns="http://www.w3.org/2000/svg" viewBox="0 0 264.52 97.6"><g id="Layer_2" data-name="Layer 2"><g id="Layer_1-2" data-name="Layer 1"><path d="M97.05.37h5.75V18a9.47,9.47,0,0,1-1.41,5.19,9.57,9.57,0,0,1-4,3.47,14.86,14.86,0,0,1-11.84,0A9.23,9.23,0,0,1,80.23,18V.37H86V17.49a5.59,5.59,0,0,0,.68,2.76,4.9,4.9,0,0,0,1.94,1.89,6.48,6.48,0,0,0,5.82,0,4.88,4.88,0,0,0,1.93-1.89,5.49,5.49,0,0,0,.69-2.76Z" fill="#50c3f0"/><path d="M130.67,13.93A15.71,15.71,0,0,1,129,21.48a11.76,11.76,0,0,1-4.57,4.75,13.74,13.74,0,0,1-13,0,11.64,11.64,0,0,1-4.56-4.76,15.63,15.63,0,0,1-1.68-7.53,15.71,15.71,0,0,1,1.68-7.55,11.59,11.59,0,0,1,4.56-4.74,13.7,13.7,0,0,1,13,0A11.67,11.67,0,0,1,129,6.38,15.71,15.71,0,0,1,130.67,13.93Zm-5.83,0A12.2,12.2,0,0,0,124,9.08a6.59,6.59,0,0,0-2.41-3,7,7,0,0,0-7.28,0,6.67,6.67,0,0,0-2.42,3,12.21,12.21,0,0,0-.85,4.85,12.21,12.21,0,0,0,.85,4.85,6.67,6.67,0,0,0,2.42,3,7,7,0,0,0,7.28,0,6.59,6.59,0,0,0,2.41-3A12.2,12.2,0,0,0,124.84,13.93Zm-8.9,4.13h4.89l2.45,3.15L125.7,24l4.56,5.69h-5.37l-3.13-3.84-1.61-2.27Z" fill="#50c3f0"/><path d="M104.25,41.12H98.43a5.74,5.74,0,0,0-.65-2,5,5,0,0,0-1.27-1.5,5.41,5.41,0,0,0-1.77-1,6.9,6.9,0,0,0-2.17-.33,6.51,6.51,0,0,0-3.68,1,6.73,6.73,0,0,0-2.44,3,12.08,12.08,0,0,0-.86,4.8,12.05,12.05,0,0,0,.87,4.87,6.31,6.31,0,0,0,6.07,4,7,7,0,0,0,2.14-.31,5.67,5.67,0,0,0,1.77-.89,5.06,5.06,0,0,0,1.28-1.44,5.63,5.63,0,0,0,.71-1.93l5.82,0a10.41,10.41,0,0,1-1.12,3.59,11,11,0,0,1-2.41,3.09,11.16,11.16,0,0,1-3.59,2.14,13,13,0,0,1-4.7.79,12.89,12.89,0,0,1-6.5-1.64,11.61,11.61,0,0,1-4.52-4.76,15.86,15.86,0,0,1-1.66-7.53,15.71,15.71,0,0,1,1.68-7.55A11.69,11.69,0,0,1,86,32.9a12.68,12.68,0,0,1,6.45-1.64,14.14,14.14,0,0,1,4.4.66,11.19,11.19,0,0,1,3.59,1.93A10,10,0,0,1,103,36.94,11.63,11.63,0,0,1,104.25,41.12Z" fill="#50c3f0"/><path d="M115.63,59.15a10.38,10.38,0,0,1-5.35-1.32,9,9,0,0,1-3.48-3.68,11.87,11.87,0,0,1-1.22-5.49,11.94,11.94,0,0,1,1.22-5.52,9,9,0,0,1,3.48-3.68,11.58,11.58,0,0,1,10.7,0,8.93,8.93,0,0,1,3.47,3.68,11.82,11.82,0,0,1,1.23,5.52,11.75,11.75,0,0,1-1.23,5.49A8.93,8.93,0,0,1,121,57.83,10.4,10.4,0,0,1,115.63,59.15Zm0-4.37A3.54,3.54,0,0,0,118,54a5,5,0,0,0,1.43-2.2,9.63,9.63,0,0,0,.48-3.16,9.73,9.73,0,0,0-.48-3.17A5,5,0,0,0,118,43.26a3.5,3.5,0,0,0-2.35-.81,3.58,3.58,0,0,0-2.39.81,5,5,0,0,0-1.45,2.19,9.73,9.73,0,0,0-.48,3.17,9.63,9.63,0,0,0,.48,3.16,5,5,0,0,0,1.45,2.2A3.63,3.63,0,0,0,115.66,54.78Z" fill="#50c3f0"/><path d="M127.5,58.75V38.41h5.4V42h.24a5.63,5.63,0,0,1,2.12-2.82,6.07,6.07,0,0,1,3.56-1,6,6,0,0,1,3.58,1,5,5,0,0,1,2,2.81h.21a5.41,5.41,0,0,1,2.27-2.8,7,7,0,0,1,3.88-1.05,6.26,6.26,0,0,1,4.65,1.8,7,7,0,0,1,1.79,5.12V58.75h-5.65V46.18a3.3,3.3,0,0,0-.91-2.54,3.19,3.19,0,0,0-2.26-.85,3,3,0,0,0-2.4,1,3.7,3.7,0,0,0-.87,2.56V58.75H139.6V46.06a3.29,3.29,0,0,0-.86-2.38,3,3,0,0,0-2.25-.89,3.17,3.17,0,0,0-1.7.47,3.35,3.35,0,0,0-1.19,1.31,4.24,4.24,0,0,0-.44,2V58.75Z" fill="#50c3f0"/><path d="M159.76,66.38v-28h5.58v3.42h.25a7.36,7.36,0,0,1,1.09-1.68,5.69,5.69,0,0,1,1.86-1.43,6.39,6.39,0,0,1,2.86-.57,7.74,7.74,0,0,1,4.12,1.15,8.14,8.14,0,0,1,3,3.49,13.33,13.33,0,0,1,1.13,5.82,13.48,13.48,0,0,1-1.1,5.74,8.21,8.21,0,0,1-3,3.53,7.68,7.68,0,0,1-4.21,1.2,6.57,6.57,0,0,1-2.8-.54,5.82,5.82,0,0,1-1.88-1.37,6.74,6.74,0,0,1-1.12-1.68h-.17V66.38Zm5.54-17.8a8.91,8.91,0,0,0,.51,3.16,4.55,4.55,0,0,0,1.46,2.1,3.66,3.66,0,0,0,2.33.75,3.59,3.59,0,0,0,2.33-.76,4.66,4.66,0,0,0,1.46-2.12,10,10,0,0,0,0-6.23A4.6,4.6,0,0,0,172,43.39a3.7,3.7,0,0,0-2.35-.76,3.77,3.77,0,0,0-2.34.73,4.56,4.56,0,0,0-1.45,2.07A8.82,8.82,0,0,0,165.3,48.58Z" fill="#50c3f0"/><path d="M194.65,50.09V38.41h5.66V58.75h-5.43V55.06h-.22a6,6,0,0,1-2.29,2.87,7.54,7.54,0,0,1-7.5.16,6.34,6.34,0,0,1-2.43-2.64,9,9,0,0,1-.88-4.09v-13h5.66V50.35a4.11,4.11,0,0,0,1,2.85,3.3,3.3,0,0,0,2.57,1,4.06,4.06,0,0,0,1.91-.47,3.72,3.72,0,0,0,1.44-1.4A4.29,4.29,0,0,0,194.65,50.09Z" fill="#50c3f0"/><path d="M213.82,38.41v4.24h-12.3V38.41Zm-9.5-4.87H210v19a2.52,2.52,0,0,0,.24,1.21,1.26,1.26,0,0,0,.67.6,2.59,2.59,0,0,0,1,.18,4.34,4.34,0,0,0,.8-.08l.61-.11.89,4.2c-.28.09-.68.19-1.2.31a10.11,10.11,0,0,1-1.87.22,8.54,8.54,0,0,1-3.58-.55,5,5,0,0,1-2.39-1.93,5.94,5.94,0,0,1-.83-3.31Z" fill="#50c3f0"/><path d="M218.49,35.79a3.06,3.06,0,0,1-2.17-.84,2.71,2.71,0,0,1,0-4,3,3,0,0,1,2.15-.84,3.09,3.09,0,0,1,2.18.84,2.73,2.73,0,0,1,0,4A3.05,3.05,0,0,1,218.49,35.79Zm-2.86,23V38.41h5.66V58.75Z" fill="#50c3f0"/><path d="M229.6,47V58.75h-5.66V38.41h5.39V42h.24a5.67,5.67,0,0,1,2.28-2.81,6.85,6.85,0,0,1,3.86-1,7.17,7.17,0,0,1,3.71.92,6.28,6.28,0,0,1,2.46,2.64,9,9,0,0,1,.88,4.09v13H237.1V46.81a4.16,4.16,0,0,0-1-2.92,3.44,3.44,0,0,0-2.67-1.06,4.11,4.11,0,0,0-2,.49,3.34,3.34,0,0,0-1.35,1.43A4.84,4.84,0,0,0,229.6,47Z" fill="#50c3f0"/><path d="M254.54,66.67a13.48,13.48,0,0,1-4.72-.74,8,8,0,0,1-3.11-2,6,6,0,0,1-1.5-2.8l5.23-.7a3.18,3.18,0,0,0,.76,1,4,4,0,0,0,1.37.82,6.14,6.14,0,0,0,2.1.32,5.08,5.08,0,0,0,3.05-.88,3.31,3.31,0,0,0,1.2-2.87V55.15h-.24a5.5,5.5,0,0,1-1.11,1.6A5.77,5.77,0,0,1,255.65,58a7.33,7.33,0,0,1-2.79.48,8.33,8.33,0,0,1-4.18-1.07,7.52,7.52,0,0,1-3-3.27,12.37,12.37,0,0,1-1.11-5.58,13.15,13.15,0,0,1,1.13-5.77,8.07,8.07,0,0,1,3-3.47,7.73,7.73,0,0,1,4.13-1.15,6.47,6.47,0,0,1,2.87.57,5.84,5.84,0,0,1,1.87,1.43,8.1,8.1,0,0,1,1.09,1.68h.21V38.41h5.63V59a7,7,0,0,1-1.28,4.26,7.77,7.77,0,0,1-3.53,2.58A14.08,14.08,0,0,1,254.54,66.67Zm.11-12.45a3.88,3.88,0,0,0,2.32-.68,4.3,4.3,0,0,0,1.47-2,8.25,8.25,0,0,0,.51-3.07,8.57,8.57,0,0,0-.51-3.1,4.49,4.49,0,0,0-1.46-2,3.76,3.76,0,0,0-2.33-.73,3.69,3.69,0,0,0-2.35.75,4.59,4.59,0,0,0-1.45,2.07,9,9,0,0,0-.49,3.06,8.38,8.38,0,0,0,.5,3,4.38,4.38,0,0,0,1.45,2A3.86,3.86,0,0,0,254.65,54.22Z" fill="#50c3f0"/><path d="M95,70.69a3.34,3.34,0,0,0-1.37-2.49,5.45,5.45,0,0,0-3.28-.89A6.41,6.41,0,0,0,88,67.7a3.31,3.31,0,0,0-1.48,1.08A2.57,2.57,0,0,0,86,70.35a2.15,2.15,0,0,0,.31,1.27,3.05,3.05,0,0,0,.93.93,6.66,6.66,0,0,0,1.39.68,13.08,13.08,0,0,0,1.67.48l2.45.58A18.16,18.16,0,0,1,96,75.35,9.9,9.9,0,0,1,98.57,77a6.68,6.68,0,0,1,1.7,2.28,7.27,7.27,0,0,1,.62,3,7.45,7.45,0,0,1-1.27,4.31A8,8,0,0,1,96,89.39a14.43,14.43,0,0,1-5.68,1,14.94,14.94,0,0,1-5.73-1,8.27,8.27,0,0,1-3.8-3,8.76,8.76,0,0,1-1.43-4.91h5.57a4.08,4.08,0,0,0,.79,2.28,4.21,4.21,0,0,0,1.87,1.36,7.38,7.38,0,0,0,2.66.46,6.81,6.81,0,0,0,2.55-.43A3.84,3.84,0,0,0,94.48,84a2.7,2.7,0,0,0,.6-1.73,2.28,2.28,0,0,0-.54-1.54A4.36,4.36,0,0,0,93,79.65a16.13,16.13,0,0,0-2.52-.79l-3-.74a12.57,12.57,0,0,1-5.44-2.61,6.1,6.1,0,0,1-2-4.78,7.11,7.11,0,0,1,1.33-4.3,8.8,8.8,0,0,1,3.67-2.88,13,13,0,0,1,5.32-1,12.61,12.61,0,0,1,5.29,1,8.37,8.37,0,0,1,3.53,2.88,7.59,7.59,0,0,1,1.31,4.26Z" fill="#50c3f0"/><path d="M112,90.41a10.38,10.38,0,0,1-5.35-1.32,9,9,0,0,1-3.48-3.68,13,13,0,0,1,0-11,9,9,0,0,1,3.48-3.68,11.58,11.58,0,0,1,10.7,0,8.93,8.93,0,0,1,3.47,3.68,12.93,12.93,0,0,1,0,11,8.93,8.93,0,0,1-3.47,3.68A10.4,10.4,0,0,1,112,90.41ZM112,86a3.55,3.55,0,0,0,2.36-.8A5,5,0,0,0,115.8,83a9.63,9.63,0,0,0,.48-3.16,9.73,9.73,0,0,0-.48-3.17,5,5,0,0,0-1.43-2.19,3.5,3.5,0,0,0-2.36-.81,3.58,3.58,0,0,0-2.38.81,4.91,4.91,0,0,0-1.45,2.19,9.72,9.72,0,0,0-.49,3.17,9.62,9.62,0,0,0,.49,3.16,4.89,4.89,0,0,0,1.45,2.2A3.62,3.62,0,0,0,112,86Z" fill="#50c3f0"/><path d="M133.08,90.41a10.48,10.48,0,0,1-5.39-1.33,8.83,8.83,0,0,1-3.45-3.71,12.92,12.92,0,0,1,0-10.94,8.93,8.93,0,0,1,3.46-3.69,10.29,10.29,0,0,1,5.35-1.33,10.67,10.67,0,0,1,4.67,1,7.83,7.83,0,0,1,3.18,2.72,7.93,7.93,0,0,1,1.29,4.1h-5.34a4.16,4.16,0,0,0-1.19-2.45,3.45,3.45,0,0,0-2.52-.94,3.8,3.8,0,0,0-2.29.71,4.64,4.64,0,0,0-1.53,2.06,8.81,8.81,0,0,0-.54,3.27,9,9,0,0,0,.54,3.31,4.54,4.54,0,0,0,1.52,2.08,3.79,3.79,0,0,0,2.3.71,3.85,3.85,0,0,0,1.75-.39,3.49,3.49,0,0,0,1.29-1.16,4.48,4.48,0,0,0,.67-1.84h5.34a8.3,8.3,0,0,1-1.27,4.1,7.71,7.71,0,0,1-3.13,2.76A10.36,10.36,0,0,1,133.08,90.41Z" fill="#50c3f0"/><path d="M146.83,67.05a3.08,3.08,0,0,1-2.17-.84,2.71,2.71,0,0,1,0-4,3.21,3.21,0,0,1,4.33,0,2.73,2.73,0,0,1,0,4A3.05,3.05,0,0,1,146.83,67.05ZM144,90V69.67h5.66V90Z" fill="#50c3f0"/><path d="M161.58,90.41a10.85,10.85,0,0,1-5.41-1.28,8.61,8.61,0,0,1-3.49-3.63,13.19,13.19,0,0,1,0-11.08,8.91,8.91,0,0,1,3.45-3.69,10,10,0,0,1,5.23-1.32,10.86,10.86,0,0,1,3.77.64A8.59,8.59,0,0,1,168.18,72a8.93,8.93,0,0,1,2,3.23,12.73,12.73,0,0,1,.73,4.53v1.55H153.71V77.79h11.91a4.27,4.27,0,0,0-.53-2.16,3.8,3.8,0,0,0-1.47-1.48,4.36,4.36,0,0,0-2.17-.53,4.31,4.31,0,0,0-2.28.59,4.17,4.17,0,0,0-1.55,1.57,4.52,4.52,0,0,0-.57,2.19V81.3a5.57,5.57,0,0,0,.57,2.6,4,4,0,0,0,1.6,1.7,4.82,4.82,0,0,0,2.46.6,5.22,5.22,0,0,0,1.72-.27,3.71,3.71,0,0,0,1.35-.79,3.63,3.63,0,0,0,.85-1.3l5.23.34a7.1,7.1,0,0,1-1.62,3.28A8.15,8.15,0,0,1,166,89.63,11.84,11.84,0,0,1,161.58,90.41Z" fill="#50c3f0"/><path d="M183.64,69.67v4.24h-12.3V69.67Zm-9.51-4.87h5.66v19A2.52,2.52,0,0,0,180,85a1.3,1.3,0,0,0,.67.6,2.64,2.64,0,0,0,1,.18,4.43,4.43,0,0,0,.8-.08l.61-.11.89,4.2c-.29.09-.69.19-1.2.31a10.22,10.22,0,0,1-1.87.22,8.52,8.52,0,0,1-3.58-.55A4.93,4.93,0,0,1,175,87.81a5.86,5.86,0,0,1-.84-3.31Z" fill="#50c3f0"/><path d="M188.94,97.6a11.5,11.5,0,0,1-2-.17,8.21,8.21,0,0,1-1.55-.4l1.27-4.23a5.23,5.23,0,0,0,2.54.25,2.42,2.42,0,0,0,1.62-1.6l.34-.86-7.33-20.92h6L194,84.61h.22l4.26-14.94,6,0-7.94,22.51A9.37,9.37,0,0,1,195,95.05a6.58,6.58,0,0,1-2.46,1.88A8.81,8.81,0,0,1,188.94,97.6Z" fill="#50c3f0"/><path d="M38.57,43.39l-1.16-2.91C35.17,35,33.33,34,27.5,35.69L24.4,25a20.86,20.86,0,0,1,7.34-1.3C40,23.71,46.08,28,49.09,35.82L64.27,75.76C65.69,79.54,66.5,81,68.86,81H69V.38H0V90.43H20.82Z" fill="#50c3f0"/><path d="M45.63,61.32H45L35,90.43H59.89a13.57,13.57,0,0,1-6.76-7.65Z" fill="#50c3f0"/></g></g></svg>