<svg xmlns="http://www.w3.org/2000/svg" viewBox="0 0 65.94 65.99"><g id="Layer_2" data-name="Layer 2"><g id="Layer_1-2" data-name="Layer 1"><path d="M55.15,64.4a14.35,14.35,0,0,1-2.09-3.65L46.78,42.82h-.54L38.28,66H56.76A9.33,9.33,0,0,1,55.15,64.4ZM0,0V66H26.49l14.4-38.15-.7-1.7a25.82,25.82,0,0,0-1.76-3.63A3.88,3.88,0,0,0,36,20.72a8.87,8.87,0,0,0-4.43.44L29,12.21a19.62,19.62,0,0,1,2.84-.78,17,17,0,0,1,3.3-.3,15.89,15.89,0,0,1,6.7,1.31A13.47,13.47,0,0,1,46.59,16a17.83,17.83,0,0,1,3,5.23L62.36,54.88a17.71,17.71,0,0,0,1.58,3.3,2.48,2.48,0,0,0,2,1V0Z" fill="#fff"/></g></g></svg>