<svg xmlns="http://www.w3.org/2000/svg" viewBox="0 0 285.15 257.57"><defs><style>.cls-1{fill:#5397d1;stroke-width:15px;}.cls-1,.cls-2{stroke:#fff;stroke-miterlimit:10;}.cls-2{fill:#fff;stroke-width:2.5px;}</style></defs><title>UQCS_Logo_Symbol_Dark</title><g id="Layer_2" data-name="Layer 2"><g id="Layer_1-2" data-name="Layer 1"><path class="cls-1" d="M194,7.5H91.11A32.17,32.17,0,0,0,63.27,23.57L11.81,112.72a32.1,32.1,0,0,0,0,32.14L63.27,234a32.15,32.15,0,0,0,27.84,16.07H194A32.13,32.13,0,0,0,221.88,234l51.47-89.14a32.15,32.15,0,0,0,0-32.14L221.88,23.57A32.15,32.15,0,0,0,194,7.5Z"/><path class="cls-2" d="M164.18,208.43V197.3c11-.14,17.37-7.78,17.37-21v-19.9c0-13.86,4.09-21.45,13.27-24.58a3.66,3.66,0,0,0,2.5-3.48,3.71,3.71,0,0,0-2.48-3.49c-8.94-3.12-13.29-11-13.29-24.15v-20c0-20.42-13-20.42-17.24-20.42h-.13V49.15h2.71c19.18,0,30.18,11,30.18,30.06V100.8c0,12.59,3.36,20.62,19.61,21.35v12.93c-16.25.83-19.61,8.78-19.61,21.2v22.28c0,27-21.11,29.87-30.18,29.87Z"/><path class="cls-2" d="M164.18,208.43V197.3c11-.14,17.37-7.78,17.37-21v-19.9c0-13.86,4.09-21.45,13.27-24.58a3.66,3.66,0,0,0,2.5-3.48,3.71,3.71,0,0,0-2.48-3.49c-8.94-3.12-13.29-11-13.29-24.15v-20c0-20.42-13-20.42-17.24-20.42h-.13V49.15h2.71c19.18,0,30.18,11,30.18,30.06V100.8c0,12.59,3.36,20.62,19.61,21.35v12.93c-16.25.83-19.61,8.78-19.61,21.2v22.28c0,27-21.11,29.87-30.18,29.87Z"/><path class="cls-2" d="M121,208.43V197.3c-11-.14-17.37-7.78-17.37-21v-19.9c0-13.86-4.09-21.45-13.27-24.58a3.64,3.64,0,0,1-2.49-3.48,3.68,3.68,0,0,1,2.48-3.49c8.94-3.12,13.28-11,13.28-24.15v-20c0-20.42,13-20.42,17.25-20.42H121V49.15h-2.71c-19.17,0-30.17,11-30.17,30.06V100.8c0,12.59-3.36,20.62-19.62,21.35v12.93c16.26.83,19.62,8.78,19.62,21.2v22.28c0,27,21.1,29.87,30.17,29.87Z"/><path class="cls-2" d="M121,208.43V197.3c-11-.14-17.37-7.78-17.37-21v-19.9c0-13.86-4.09-21.45-13.27-24.58a3.64,3.64,0,0,1-2.49-3.48,3.68,3.68,0,0,1,2.48-3.49c8.94-3.12,13.28-11,13.28-24.15v-20c0-20.42,13-20.42,17.25-20.42H121V49.15h-2.71c-19.17,0-30.17,11-30.17,30.06V100.8c0,12.59-3.36,20.62-19.62,21.35v12.93c16.26.83,19.62,8.78,19.62,21.2v22.28c0,27,21.1,29.87,30.17,29.87Z"/></g></g></svg>