<?xml version="1.0" encoding="UTF-8" standalone="no"?>
<svg xmlns="http://www.w3.org/2000/svg" width="2500" height="2500" viewBox="0 0 256 256" preserveAspectRatio="xMidYMid"><path fill="white" d="M 1411.7422 0.79101562 C 1388.0827 0.50530475 1363.9748 4.0179443 1340.2246 11.738281 C 1223.2812 49.726563 1159.2871 175.33203 1197.2949 292.25586 L 1270.2129 516.60742 L 801.68164 668.89648 L 728.76953 444.49219 C 690.76172 327.55859 565.16602 263.56445 448.24219 301.55273 C 331.28906 339.55078 267.28516 465.14648 305.30273 582.08984 L 378.25 806.52539 L 146.75781 881.76758 C 37.519531 921.25977 -23.876953 1039.2773 8.75 1152.5586 C 42.744141 1270.7031 168.24219 1342.7344 284.30664 1305.0293 L 515.82422 1229.8066 L 668.15625 1698.4883 L 436.60156 1773.75 C 327.35352 1813.2617 265.9668 1931.2695 298.56445 2044.5508 C 332.57812 2162.7051 458.07617 2234.7363 574.12109 2197.0312 L 805.73633 2121.7773 L 880.9668 2353.2422 C 920.48828 2462.4805 1038.5059 2523.877 1151.7871 2491.25 C 1269.9414 2457.2559 1341.9629 2331.7578 1304.2578 2215.6934 L 1229.0547 1984.2363 L 1697.7266 1831.957 L 1772.9492 2063.3984 C 1812.4805 2172.6465 1930.4883 2234.0332 2043.7695 2201.4355 C 2161.9336 2167.4219 2233.9551 2041.9238 2196.25 1925.8789 L 2121.043 1694.418 L 2345.332 1621.543 L 2345.332 1621.5332 C 2462.2754 1583.5449 2526.25 1457.959 2488.2617 1341.0059 C 2450.2734 1224.082 2324.668 1160.0781 2207.7441 1198.0762 L 1983.457 1270.9766 L 1831.2109 802.41797 L 2055.5078 729.54102 L 2055.5078 729.55078 C 2172.4414 691.5625 2236.4355 565.9668 2198.4473 449.01367 C 2160.459 332.08984 2034.8535 268.0957 1917.9102 306.08398 L 1693.627 378.98242 L 1620.7422 154.66797 C 1590.4703 61.478729 1504.5602 1.9118814 1411.7422 0.79101562 z M 1407.8184 939.98438 L 1560.1191 1408.5742 L 1091.502 1560.8887 L 939.23047 1092.2363 L 1407.8184 939.98438 z " transform="scale(0.1024)"/></svg>
